<mxfile host="app.diagrams.net" agent="Mozilla/5.0 (Windows NT 10.0; Win64; x64; rv:136.0) Gecko/20100101 Firefox/136.0" version="26.0.16">
  <diagram name="Page-1" id="UnoGZzNpjWDbtuCiKqlF">
    <mxGraphModel dx="1050" dy="558" grid="0" gridSize="10" guides="1" tooltips="1" connect="1" arrows="1" fold="1" page="1" pageScale="1" pageWidth="827" pageHeight="1169" math="0" shadow="0">
      <root>
        <mxCell id="0" />
        <mxCell id="1" parent="0" />
        <mxCell id="RhiL1b1TZZQTGWYYgc24-22" value="" style="shape=image;verticalLabelPosition=bottom;labelBackgroundColor=default;verticalAlign=top;aspect=fixed;imageAspect=0;image=data:image/png,iVBORw0KGgoAAAANSUhEUgAAAtgAAAFjCAYAAAAHNnwuAAAAAXNSR0IArs4c6QAAAARnQU1BAACxjwv8YQUAAAAJcEhZcwAAEnQAABJ0Ad5mH3gAAHZpSURBVHhe7d0hdqtOGwbwh28j9y+goqcrGFYANVW1dSCDue7KuhqQwdVW1RRWEFbQU3FB9K6ET8yQwDAkQ5Kmafv8zokIGQYYCHkZ3iFO27Ytev79+4dfv371J9GJcR/QR+LxZY9tdRps59Nie58O2/pn6e/v/+kfEhERERHR/hhgExEREREdkfP+/j5IEfnvv//6b4mIiIiIyML7+zsAwNFzsB3HgTaJTow5W/SReHzZY1udBtv5tNjep8O2/ln6MTRTRIiIiIiIjogBNhERERHRETHAJiIiIiI6IgbYRERERERHxACbiIiIiOiIGGATERERER0RA2wiIiIioiNigE1ERET0CZrMh+M48LNG/0gpEW/9fEqDzHfg+BnmznkUZQzHcRCX+gcfQd9W/f2hVH0zN4YBNhEREdEnqpI7zI6hz1j5nAMA8ud5Qel3wgCbiIiI6FNVSO6O1eMKAC4WqxbtagFX/+ijNRnuc0AIAeT3n3Dh8Inb3sMAm4iIiOjTREhTAVQJ7myj0aZE7DtwHPXyY5SDWU1pEg2yWKakyJePeDiTKjas2x/VvV3z8oQKEf483kKgwtOLPnMv7aWM4fe2Ybj5tuV0pm23365GW5apjA0G2ERERESf6GLxCBljW6SKlDF8L0Re9aZVOULP3zJvg8z3kAxnQh56wzzpJhvVXe2su6/By1MFRDcI3GvcCqB6ejH3zL89wA9zrBdV5UhMy7Ett43ldjWZD09bVnj3gLdNEWsMsImIiIg+lYvFYwqxM1WkQXYvA8CoqNG2Ldq2RZ2K7WkmzQueKkBEBWo1T1unEIM86QbZXYIKYlh3odbrwSKfunxAUgHRTSC36U8EVAlMs1Z5jmq9PjWKbhu0wrblptluV4mHpAIgkHbl6gIp8uHFjCUG2ERERESfzV3gcVeqiAqUERVYBpsMY3exQhEBqJ4wysjoqV7v8ZBlKJsGcBdYtS3aZSA/7ILw9HFYd6DWK3/GrpBWDm6McKOqRHCDaGqwo0hRLwOVJ+0i6LZBX45tuSm229X8xStkuUVXzg3Uhc98DLCJiIiIzoBrmSoie4iHgptIn7ThLvAnAlBVyJMEoefJPOQ42+QY12+oAFSJ/Kz/8pIKwCv+blmnbnAjkCNczxtCTjIEw1cXo0GI3qUYL8e23BTb7VLlri60palUl7kYYBMRERGdBdtUkfmCpUyLiHrBYpUnCL14HPzuQQ5unJLjftsVwzfEAJuIiIjoXAxSRf7qnwITKRfds6e3cYMFliuVg1wXSCMAyPFcAvAuIQBEhcrRHr1WWOhdyWtqcKNINzne61cBmb2iDXZ8/atdQKg6cIVBJ7JtuSm226XKvY66xWu8TV85TGKATURERHRGNqkiiUyxWH+g0hXycPCIvSbzEeYAxC2uTUGn+mdFPyvXwarreri4FAAELr1N3XnoI+s/m64p5WPvnC093Wpwo7i9HqVzAAFuTPnhVYK79fo0KLM7JBXkE0h6xazLTbHdLvcCV5DpOZu2bZD5Ks1lrlZjmEQn9v7+rk8iOhoeX/bYVqfBdj4ttvfp7GrrOhUtELWF/kHbtm2dtgJoAbQirTfTi2g9ffgS7aZY3aYCLUTayknq/WiefhlZ9+hz0zpoikhfvqarNyrati3aCGghhGE7+m1hW25iW/fZLlM5EbWR6NZ9O/RiaPZgExEREZ2bLlVEFyyxqoe51BARinpbCoeLxapGOpxJPrav/4+HwRLtqG75eLvVZOUl5MND/kwvP/iNVGiDHa/+YFVE6yd0iChFUS/HvdK25bax3a5gOcxTFxGK1W9cbkpYc1TEvZngONAm0Yn9+/cPv3790icTHQWPL3tsq9NgO58W2/t02NYmJWInRB4Vm0cEGtmWOx/9GJo92ERERERER8QAm4iIiIjoiBhgExEREREdEQNsIiIiIjqRAMv+X7RPsi13nhhgExEREREdEQNsIiIiIqIjYoBNRERERHREDLCJiIiIiI6IATYRERER0RExwCYioi+tyXw4jmN++TGystFnOUyTIfbjzV8+o0HmO3D8DPOWpM+nv/++un3mZ1NbWiLe+vkWo/3z1TQosxi+3z+OfcRZ+bWPizKG4ziIZ+0Y9Z3YOZNtOVuH18cAm4iIvq8qRxJ6M3/Ut2tenpBX+lTaR5XcYZ8YepuvvX8aZL6HMMlR9behqpAnIbwvfPFVPucAgPz5iF/GM8YAm4iIvoEIRdui1V51EQEA8vuPDExcLFYt2tUCrv4R7VAhufvIffPFlA9IKgAiRVH3juW6QCoAVAkevmJ82mS4zwEhBJDfH/2i6hwxwCYiom/LDZYoIgDVG+re9KbUbsE7PuLBr/7mFvEmBcWH7zjwkgpAjnCdwmBO7di9jB0mb6kfkD5xViKkqQCqBHe229KUiAepEzE2GUByP4z3z9fR/H0FIJA+LhD0r9bcAItVgcjQA9yUMfx+SpRpk7e2GyaO914ZbX5/NP92zcsTKkT483gLgQpPL+aZ9W2ZWoZtOdv1tq5vBgbYRET0ozSZDy/UbsGjQp4YUkle73GXqILiCldC+3zCrGVMCW6MARXKZ+QQuL3++v3lF4tHyBjbIlWkjOF74TD9o8oRev7ueb8I9+IKmAxADf9sWMbyOOveVzkSvT3mtNvgeL+E5wJostH81dT8Rg1eniogukHgXuNWANXTy+iuxfo7002ocoR3D3gbFrMuZ7ve1vXN1WoMk+jE3t/f9UlER8Pjyx7b6jQObec6FS0QtYX+Qdu2dRG1AFpE3ad1mwrI8nW/YNoKYzm0Iu0XNC1PlRVpK0vOXIY+3/p92xaRqmddiZrWKzPXoe19DIM27NplsE1FGw3afrM/ol6jynqG8473z+fZp62LSG0TRCuiqE2Loq2NO7trE9F2zdQd7/Pbbep43yxjMH+hH8tbqHVaF9Xfy4ltpLY57ZZTF+t12izHtpztetvWZ6cfQ4+iaQbYn2+fLySRLR5f9thWp3FoO6+DhcnXJgAZzFfXbVGkbRpF8kfX+AM9DtTGAdw4MF5/YrMMPcjp1zMKRvTAc75D2/sY9Dbs9uFmu7TtHF2cbMiLkF6QOdo/n2fftq7rok0jsTlm1HHcDxa7Ntl6LFi328TxvmUZtu08vkhUQW1/naaWo6//oeX09Z4qp9dnqR9DM0WEiIi+LSEiFPUKi342RZPJXGrPQxgmSPLe7WGduISnT7MxZxnb6Gki3yg9pM+1TBWJbnrpEUpwIweyfieuG2CxXGHVtmjbGnWRIhJAHnqjvPKri93HgnW76cd7/YYKQJV4vbEE8iVz3V/xd8v+6gY3djnxct4QctLz5lGKajmjbVEpJWszy+1cb9v69sAAm4iIvgHzU0RWq+VwsBhKxF6CCoCIIqRpgaKoUbdyANlxHHMZAW5khI2ye9SZuMU3i6/lk1geUwg+VcTAhRsssFypixBD/vK5koMbp+S433Y19cUxwCYiop+j+YtXAFHRYrVcYrEIEAQuXDX9KI68DNnTmOO5LCHj6+vv+ThAd4HH9VNF/uqfAqYBn73nK3998ukw+tNoNlzIMZDDJ+K8bu1ClvZuN+8SQh3L+sWrfGl3hwbU4EaRoh7NJy821xcLajnjbanx1o/QZ5bbud629e2BATYREf04+XPvX/GaEvGd7HHG69+J4Ea349b4UZahBL+RCuD1/h6v3zA9pG+TKpLINIL1B+qWfR4i7j1Drcl8hDkMvfq798/5UXcrqgR3cTZ6jF5TxjLdokvj6J7I0U+rabJhkD673TRq/jz0h/+I2pTysX7Oln/MVM/0Nl8Qdtv6hJcGgHuBK8ht2axng8xX6SQd63KW621b3z4G2dktBzmeg30HRRDZ4PFlj211Goe2s+1gK2nztATja9uAw66G3qBKOThKL7vvMvT3G5tl2m7ntEPb+xi27rNugJk++KzoDRQdvIaDWMf75/PMb+vuqRZTL23AbveUHO01GJtn1W7Tx97UMrCjffXBpyP6E35MyxFRGwltsOEh5UzrbSpnqs8COMiRiIh+JheLxwJRfwCTiJAWtfEPaUzcxZ/1/NVbbeiNPnwZOvf6FgKQzxLWP/xuulQRXbDEqpaD/dYMg1h3759zFmDZ1ijSCGLQBAIiSkfbimCJuojksaHKRUWN/qOybdttUrBEO5pfLmc1WYFMZ0L0Z3oZ6s7MerBjsFwP5gTUOq5+43I416xyVuttW99Mjoq4NxMcB9okOrF///7h169f+mSio+DxZY9tdRpsZwtlDCfMERXtMHjaA9v7dNjWP0s/hmYPNhER0TlrSsT3OSBS/D4wuCai02CATUREdJbUUyXU3z2bB4sR0TligE1ERHSWPFyqvFARFVvyXYno3DDAJiIiOksuFiv53N7VoYnXRHRSDLCJiIiIiI6IATYRERER0RExwCYiIiIiOiIG2ERERERER8QAm4iIiIjoiGYE2A3KLIbvO3Ac9fJ9xFk5/hvSJkPsx/KvL+c6ZN5z8aHb0KApY/i+v9kPjgPfj1E2oz1BtIcZ3/Wz0SDzHTh+tlnHD/0eKmUMx3EQ770Qw3ob2Zb7DGrd9EZoMsT6MVQesPZsa7b1SZ2orT/Ckc99ZSxjjGzHdjZlhtj34Wfby9mb2Ac7ncdxZRlgN8h8D2GSo6p6k6sKeRLC0zaieXlC3i83wyHznouP24YSse/BC3NUgx0BVFWO0POOeGDTzzTvu37OPu57uFE+5wCA/HnuD8A3V8ZwvGTY/lWFPNz/HMW2nsC2Pp0PaOuP8BHnvqrKkYQP00F7k+EuTJBrsclPZhdglw9IKgAiRVHLZ3K2bYu2LpAKAFWCh8lWp+NokPnq37yiFEVdb/ZDW6MuUshdcYcz+p7TV/Nlv+vqecGrxen+6a7JcJ8DQgggv//g790nbN/eGmT3OQCBqNicp+oiUueoLT/SU9jWE9jWp/MBbf2lCAiR437igGhenlAJAfW/SAQArcYwqa1T0QKiTWv9k7Zt26KNgBZR0bZt3aYCLbB5id5MdRG1YvC5aKP159vnbeuijXqfCxG1RX996rQVap66iFqh17+ehlZEaTvalF31d+sn0rYo0t52zNgGS+/v7/qkti0iWWdU6J9sqDbYlFHrExVqH6IFetulbTO2bPNwKzb1SvIYEGk9aGeIaOKYoc9kPL4U++96z47vjqwzasdHrqG+HXVNH9P9Y3Xie6i+Q/rqD45fze62itqid+4x2ZyPTN+J/nr3t71/XtHL9Sdvb6/jtn1XbLg967bv6trSHlPH17Z2btnWR23rdkd7s61P19bHN3HuW3+86zffrIjQAlGbpmK8r9p2vdwonWgjy+Xu3Aebgjv26cRxdQLoxdCjaLr/4Zr6YRo12sj0zt38GI5fsu2m510HjqNX74DuDv6ot4O6MoVh/sEX0PC5Xr9h/fqvndswg+kL2R3g4xPKNt1BJnoHrTrg+gfyrm0eHaT6Qa8ClFHb6/XROTAdX2vW33XF5rujyujnyFHAa1PX5DHdP1anvoeGH9+2Ww/zcTrdVv3vwNT3ZLONu7cnGv4AqddmVQ3LsGmvo7b9xHm8W/fRQsamzmPT7dyyrfuvI7R1u7W92dbr14e39UeYOvfZ/uabrbevTlthKl+nrZi6KLNcrvU+sNqnhuPqRDA7wG7btoi6jRetiKI2LYq2nljz8dVlt9O1q4yuoXqNNz2vaKPezHUXNHfz9hq9K1f3TgKjYH3d8Jb19w/cqFjvtPVBsXUb5hl/IScCg5026zwMmDbTB9vcbYveNqODtH8SbjfrN2ibui0MbUOfb3x8Ddl/12d+d7TjYPijNLOuqWO6d6yavoemH8IiMh3j0mRb6T/k+vu2HWzT+vQzuoDpnVcG667fsdK3b2Z7HaXtu++5aNOuXF0MzovbdOcX08XbZDu3hrbV37ct21qzra3bbe2tt63+vm3Z1pq92/oDjc99m/2x/TffbNOush59W4tItdMowLZdru0+sN2n+nF1OtgnwG7btq3rok2jXs+RapD+hrbGndv7rK7bokjbtN/b2TuAR/OOdtjGoKwhWF/vtEEjaw1vW/96x+rbNQ5+R9sw0/gLOV5GZ32g9l+jk5W2Lsa2kuQXqTtxTh2k+snN1M7qE0NAQ59rfHyNWX3Xrb873ft+D4N2TFvXNXFMG45VfR3a1hQwqLsvhuW2W9pqfFwbvqNbtmljanv0+vY9bx2x7afKbTmfdLqLNjFRZqqdW7a1Xujgtm63tDfbelDoQ9v6I+lttW1bhr/5Zv3jok71NBHZ7pH8cNiWtsvV5+vo80+VG23z+PfgVPoxtN0gR8V1AyyWK6x6A+siAbsRtE0G33HgeR7CMEGS57Aaa1q/oQJQJd7gsXSO48BLKgCv+NtbtLj0+nNLVxe9ARQuLq56n82sH+ISwyV4uDz3rP7ROkvRTaBPQnAT6ZPsDdpZ8i7FuA3p7Fl912d8d9zrWwhUeHpRE8pn5P1jcEZdwPQxvVNwg6j/dITyGTkEbq/1I3cLNQgMyBGu1zOEnPQ8Guh0dWFR92h7dpxXZrTX0dpelRttj3uN2y3r2mQ+wryCSGusluNzzlZs6816gG39bdr6kxzjN9+9uAKqJ3TNLts9gqHqtZ3Ltd0Htvv0TMwKsIdcuMECy9UjUgFUTy9bHt9VIvYSVABEFCFNCxRFjbotMG/X/lTqpGQ4ybmL1Xo0c9vW8kkPREc157s+QZ0ou3nlY8C2n5Q/RoAbGWGj7NZD3GJWfP3yhEqfuDY9yv7TfGrbN3h5qgCR4nExo5EVtvUcbOuv0tZfWnCDqHdhUz7nQHSDkzT7F2MRYJeInW0P7FY9wtUbav2jTvMXrwCiosVqucRiESAIXLhq+lbeJYSadxNI9l8rHHR8f3T9R+Fi8SeSJ7nZD1yfZnrGaff8U2lq39Z4M52JX/9qx4g6CeEK+oUpnaOZ3/VZ3x0X1/LXEC9NCflb2Dspz6rrMLLnJMdzKddD3F6P7rxM2/yw1qN1lB0G+gXI60d0qcxqryO1vSo33p6J8wGw+cxwd2s3tvV4e9jWX7+tP8/u33wbspOiSh5Qqrseph7qvp3Ltd0Htvv0TFgE2KrHp0pwF2cY/pGP/FdB+WhI/VbQuKs+f+79E1xTIr6TvdrjwKw3r7pKzUN/+C9CTSn/qcc58N+KPqz+8fYfJPgtew/z0PivjU1TIvbv5DOMd+luu+Th4B+o5C0vGHr0cjyvey/U87j7H3eqBHfrf/trUGZqfXh1+0XM/K7P/O50t3TfHrRbufLDWXXZM3wP1Xfp9f4er3PTQ9Rzws1Bedd+6vZp18PWfzZ9k+24iLE0s72O0vbuBa4gt2dz3thyPgAABFi2Ldp9bqGzrdnWHb191sW/YFufzDiOsv/N3052Urzi+eEJ1ba7BrbLtd0Htvv0XAyys9upQY5q8MDka/pxKzIZvRvwMPEaDUzqz9uuByaZXnoy/TD5XR9QoabqTw2wqX8yaV4f8DexDTNMD4rQniVpeg2eRzq1znKbhT4vMNqXxrYZPTqnG+SoD4qDYZALfbbp46ud/V03Hh/qNT72++cBw3FhVdfUMT2evu17uPnMsB49elvtHBDUbUP33ZjYps3pYrzeg+lTg8Ha6bpN23uctp8oNzof9JnPwTq9nVu2tbncEdq6NbQ329pQ7oPa+hSM5z7b33yDycGvehuY4jDb5druA1M59dr9O/HxMH+QY4BlW6NIIwjRny7UvwoOu+XdxR9Eqlz1VqOBi8VjsZ4GABAR0qJGEQ1TEMbzAgiWaGs5yGozv/w3pdUx7gccuX7jNhxFgOWqVQPOBjsCQrVnu1ra3SIJlliNtjka7UsES9Sp/KcqWSRFvfqNy16Rtas/WKl/tYIqW9RL9l5/KfO+6/O+O+qWLibuasyqa7dt30PZ8zWxHpO629B/pr9jqnd8PV4iWK7/6U2S23OUjq9Z7XWktg+W6wGvskyEYup8cBC2Ndu6N83UPsAXbOvTMJ77bH/zrai7GvpdAxPb5druA9t9egYcFXFvJjgOtEl0Yv/+/cOvX7/0yWesROyEyKPizG+ZEb7k8fUByhhOmCMq2q1BAdvqNNjOp8X2Ph229c/Sj6Ete7CJiL6JpkR8nwMixe8twTUREdG+GGAT0Q+hnpLihcgnB3QREREdjgE2Ef0Qmz+5EFFxdvl6RET0fTjv7++DhOv//vuv/5aIiIiIiCy8v78DHOR4njgogj4Sjy97bKvTYDufFtv7dNjWPwsHORIRERERfRAG2ERERERER8QAm4iIiIjoiBhgExEREREdkVWA3WQ+HMcxvvw4Q2n4L/CmjOH7w3KGYhr1nNq41D+Yr4zhOA7sq2qQ+Q4c32Y9P9nsbdPZbqttuc+g1m3/RqAzU8bcn0RE31pTIu7Hhn5sjCGNbOf9rHIaqwB7mypPEHox+j+LTebDC3NU1bCc5wzLfaTyOQcA5M+nWuLpfOdto5+pyXyE8rAmIqJvqUSs/uirU1X5KIY0s533s8qNzQiwIxRti3bwqlFEAkCOTaxX4iGpAJGiqLeV+0BNhvscEEIA+T0yiysNwMVi1aJdLc7739322rZ9fZE2oS+sQRn78JLe2YuIiL6dJrtHDkCkBeouNkxlbHi/I5ixnfezypnMCLBNXAS/byEAvP7tFhRg2cqgLFhHZaZyO5Qx/C4VxbI7vtO8PKFChD+PtxCo8PRiM/M5p0Ns2G5bo7Xf9HHQv/XhIx4UnGiTHbdLZEqR6erOkAK0o65Nsf2PBzpXJWLHQ5gDUZEi0j8mIqJvosHLk+x8fVwEqtPORbB4RCqA6ullS+xlO+9nlTM7MMBuUL48oYLA7fW2Ps4G5UNiUU55vYcf5lj3aVU5Qs/fEiT2qQaJbhC417i1aISvw3Lbylim6HTvqxyJsf3e8OD3b31UyBNve253k8E33i7Z1O9e30KY7laUz8gBRDeBfG9RlyymUo7WhXKEdw942xShL+oyKlC3KyyDC/0jIiL6Nmq8VQCuLrQ74i4urgBUb6gH0/ts5/2scmYzAuwcYdeDuH55CJMKIn3Ewhg3qx5Qx0OYC6TFaqKcpqqAUXd8heRBj9gMygckVRfEuVj8iYAqgc2sZ89q2xpk9zkAgVSl6NRFBJh6u6scOVLVzi3qVPYhTud2N8ju5IVSVNTrVKG6SCH6+0cF/3o9Mnc8goyvLevqUo4gkHbl6gIp8kFgTl9RgMWy6xUgIqJvq/mLVwDi0tM/gXcpALxiMsHBdt7PKjdhRoC9xVs97kUFVPQvIARkgByaelENJrrjkT8b0g6GhkEcgOAG0dag8euw2rbmBfKOxuaixw2WaNsWq9HVTYSil1/tLmR9k3p1Lzf5P3CDBR5T0ds/Lq5v9RzxEnL1byDja8u6ugM8fcSiK+cGWDymEOu5iIiIiM7HjADbNMhR9o5WeQjPmFcQYNmusFrJXscIFZK73TnO4vZ61B1/fbv7aqEbADjsbQ8hJ+0Ozs/azG27utCDaQNxieF1mYfLbVFr/YYKQJV42p0MRw1S2+wfmSbS6zXX00Ns61LlRtujesmJiIiIzs2MANvMDZYoZDfqKMgbcAP8llnh0DMVjkUOAJyye8TnOfty26bliI9634mIiOhncC9wpU9TapnoDL0fbc123s8qN+HgAHukyeTTHow92naqNz1tXA3u27oxm9GeXU7x5lUgwsSAwC9h/rZZP61lDu8SAkBU6OvQvfo59uquQ/WEl0ZLD5lTlyo33h41+ICIiIjOnLxDrscqQIO/MtFZu6PeZzvvZ5UzOzjAbspY/kFEt6Du1n0eIu49S60pY3nrX9xi54NE8hD+uke2QZndIam0AE2nBgCO00sAIMCNjEI/rPf8Q83Ztq7nOLnb5D83mXw8nv64vbm6wYuhj2zwXL5SDWYdPpqvSxN5e9DSQ+SHdnWpK8gquesdTw0yX6XHEBER0ZnrnryR4C4r14/BK2MZ35njm47tvJ9VbkKrMUxq61S0ALa+oqI3QxG1wlAGEG1aD8sN5y3aCGhFZJo/avuL0OctIkP9fao8NjNoy67bVKCFSNupKk7l/f198H7fbdNfu7dVTV8XNJSbqBtAK0YrqOY37b92Rl2mciJqo8G6ki39+DoP8rt/bvvzPNvq+2E7nxbb+3TY1n3qPD96bY/v1ES7eT+tnIReDH1wD7YQEdK6xbLftRwssapTRL1BaEJEKGrLx/Rd/saqiNZPiRAiRVEvp3uv10+o+DNdf/Db+kkk52WPbQuWqHvtB/UovME+2lewRKvtWwhZ//gpJd3g1Im7D7Z1BUvURa+ciFCsfuNyU4KIiIjOWoBlXWi/+dGO+K5jO+9nlRtzVMS9meA40CbRif379w+/fv3SJxMdBY8ve2yr02A7nxbb+3TY1j9LP4Y+uAebiIiIiIg2GGATERERER0RA2wiIiIioiNy3t/fBwnX//33H97f3/uTiIiIiIhoi34MzUGOZ4iDIugj8fiyx7Y6DbbzabG9T4dt/bNwkCMRERER0QdhgE1EREREdEQMsImIiIiIjogBNhERERHREVkF2E3mw3Ec48uPM5SNPgfQlDF8f1jOUExTInYcOPER/sy8jOE4DuyrapD5Dhy/W0/9/RmZvW06222zLfcZ1Lrt3wh0ZsqY+5OI6FtrSsT92NCPjTGkke28n1VOYxVgb1PlCUIvRv9nscl8eGGOqhqW85xhuY9UPucAgPz5VEs8ne+8bfQzNZmPUB7WRET0LZWIvRB5Pzas8lEMaWY772eVG5sRYEco2hbt4FWjiASAHJtYr8RDUgEiRVFvK/eBmgz3OSCEAPJ7ZBZXGoCLxapFu1rANb4/E3tt277OtA3oG2lQxj68pHf2IiKib6fJ7pEDEGmBuosNUxkb3u8IZmzn/axyJjMCbBMXwe9bCACvf7sFBVi2MigL1lGZqdwOZQy/S0Wx7I7vNC9PqBDhz+MtBCo8vdjMrKdD6O/Pg+22NVr7TR8H/VsfPuJBwYk22HG7RKYUma7uDClAO+raFNv/eKBzVSJ2PIQ5EBUpIv1jIiL6Jhq8PMnO18dFsO7IDBaPSAVQPb1sibVs5/2scmYHBtgNypcnVBC4vd7Wx9mgfEgsyimv9/DDHOs+rSpH6PlbgsQ+1SDRDQL3GrcWjfB1WG5bGcsUne59lSMxtt8bHvz+rY8KeeJtz+1uMvjG2yWb+t3rWwjT3YryGTmA6CaQ7y3qksVUytG6UI7w7gFvmyL0RV1GBep2hWVwoX9ERETfRo23CsDVhXZH3MXFFYDqDfVgep/tvJ9VzmxGgJ0j7HoQ1y8PYVJBpI9YGONm1QPqeAhzgbRYTZTTVBUw6o6vkDzoEZtB+YCk6oI4F4s/EVAlsJn17FltW4PsPgcgkKoUnbqIAFNvd5UjR6rauUWdyj7E6dzuBtmdvFCKinqdKlQXKUR//6jgX69H5o5HkPG1ZV1dyhEE0q5cXSBFPgjM6SsKsFh2vQJERPRtNX/xCkBcevon8C4FgFdMJjjYzvtZ5SbMCLC3eKvHvaiAiv4FhIAMkENTL6rBRHc88mdD2sHQMIgDENwg2ho0fh1W29a8QN7R2Fz0uMESbdtiNbq6iVD08qvdhaxvUq/u5Sb/B26wwGMqevvHxfWtniNeQq7+DWR8bVlXd4Cnj1h05dwAi8cUYj0XERER0fmYEWCbBjnK3tEqD+EZ8woCLNsVVivZ6xihQnK3O6dZ3F6PuuOvb3dfLXQDAIe97SHkpN3B+VmbuW1XF3owbSAuMbwu83C5LWqt31ABqBJPu5PhqEFqm/0j00R6veZ6eohtXarcaHtULzkRERHRuZkRYJu5wRKF7EYdBXkDboDfMisceqbCscgBgFN2j/g8Z19u27Qc8VHvOxEREf0M7gWu9GlKLROdofejrdnO+1nlJhwcYI80mXzag7FH2071pqeNq8F9WzdmM9qzyynevApEmBgQ+CXM3zbrp7XM4V1CAIgKfR26Vz/HXt11qJ7w0mjpIXPqUuXG26MGHxAREdGZk3fI9VgFaPBXJjprd9T7bOf9rHJmBwfYTRnLP4joFtTdus9DxL1nqTVlLG/9i1vsfJBIHsJf98g2KLM7JJUWoOnUAMBxegkABLiRUeiH9Z5/qDnb1vUcJ3eb/Ocmk4/H0x+3N1c3eDH0kQ2ey1eqwazDR/N1aSJvD1p6iPzQri51BVkld73jqUHmq/QYIiIiOnPdkzcS3GXl+jF4ZSzjO3N807Gd97PKTWg1hkltnYoWwNZXVPRmKKJWGMoAok3rYbnhvEUbAa2ITPNHbX8R+rxFZKi/T5XHZgZt2XWbCrQQaSur0N+fzvv7++D9vtumv6a3VZu+LmgoN1E3gFaMVlDNb9p/7Yy6TOVE1EaDdSVb+vF1HuR3/9z253m21ffDdj4ttvfpsK371Hl+9Noe36mJdvN+WjkJvRj64B5sISKkdYtlv2s5WGJVp4h6g9CEiFDUlo/pu/yNVRGtnxIhRIqiXk73Xq+fUPFnuv7gt/WTSM7LHtsWLFH32g/qUXiDfbSvYIlW27cQsv7xU0q6wakTdx9s6wqWqIteORGhWP3G5aYEERERnbUAy7rQfvOjHfFdx3bezyo35qiIezPBcaBNohP79+8ffv36pU8mOgoeX/bYVqfBdj4ttvfpsK1/ln4MfXAPNhERERERbTDAJiIiIiI6IgbYRERERERH5Ly/vw8Srv/77z+8v7/3JxERERER0Rb9GJqDHM8QB0XQR+LxZY9tdRps59Nie58O2/pn4SBHIiIiIqIPwgCbiIiIiOiIGGATERERER0RA2wiIiIioiOyCrCbzIfjOMaXH2coG30OoClj+P6wnKGYpkTsOHDiI/yZeRnDcRzYV9Ug8x04freeu95/otnbprPdFttyn0Gt2/6NQGemjLk/iYi+taZE3I8N/dgYQxrZzvtZ5TRWAfY2VZ4g9GL0fxabzIcX5qiqYTnPGZb7SOVzDgDIn0+1xNP5zttGP1OT+QjlYU1ERN9SidgLkfdjwyofxZBmtvN+VrmxGQF2hKJt0Q5eNYpIAMixifVKPCQVIFIU9bZyH6jJcJ8DQgggv0dmcaUBuFisWrSrBVyr959kr23b15lsM31jDcrYh5f0zl5ERPTtNNk9cgAiLVB3sWEqY8P7HcGM7byfVc5kRoBt4iL4fQsB4PVvt6AAy1YGZcE6KjOV26GM4XepKJbd8Z3m5QkVIvx5vIVAhacXm5n1dIhd7z+H7bY1WvtNHwf9Wx8+4kHBiW3ecbtEphSZru4MKUA76toU2/94oHNVInY8hDkQFSki/WMiIvomGrw8yc7Xx0Ww7rgMFo9IBVA9vWyJrWzn/axyZgcG2A3KlydUELi93tbH2aB8SCzKKa/38MMc6z6tKkfo+VuCxD7VINENAvcatxaN8HVYblsZyxSd7n2VIzG23xse/P6tjwp54m3P7W4y+MbbJZv63etbCNPdivIZOYDoJpDvLeqSxVTK0bpQjvDuAW+bIvRFXUYF6naFZXChf0RERN9GjbcKwNWFdkfcxcUVgOoN9WB6n+28n1XObEaAnSPsehDXLw9hUkGkj1gY42bVA+p4CHOBtFhNlNNUFTDqjq+QPOgRm0H5gKTqgjgXiz8RUCWwmfXsWW1bg+w+ByCQqhSduogAU293lSNHqtq5RZ3KPsTp3O4G2Z28UIqKep0qVBcpRH//qOBfr0fmjkeQ8bVlXV3KEQTSrlxdIEU+CMzpKwqwWHa9AkRE9G01f/EKQFx6+ifwLgWAV0wmONjO+1nlJswIsLd4q8e9qICK/gWEgAyQQ1MvqsFEdzzyZ0PawdAwiAMQ3CDaGjR+HVbb1rxA3tHYXPS4wRJt22I1urqJUPTyq92FrG9Sr+7lJv8HbrDAYyp6+8fF9a2eI15Crv4NZHxtWVd3gKePWHTl3ACLxxRiPRcRERHR+ZgRYJsGOcre0SoP4RnzCgIs2xVWK9nrGKFCcrc7h1ncXo+6469vd18tdAMAh73tIeSk3cH5WZu5bVcXejBtIC4xvC7zcLktaq3fUAGoEk+7k+GoQWqb/SPTRHq95np6iG1dqtxoe1QvOREREdG5mRFgm7nBEoXsRh0FeQNugN8yKxx6psKxyAGAU3aP+DxnX27btBzxUe87ERER/QzuBa70aUotE52h96Ot2c77WeUmHBxgjzSZfNqDsUfbTvWmp42rwX1bN2Yz2rPLKd68CkSYGBD4JczfNuuntczhXUIAiAp9HbpXP8de3XWonvDSaOkhc+pS5cbbowYfEBER0ZmTd8j1WAVo8FcmOmt31Pts5/2scmYHB9hNGcs/iOgW1N26z0PEvWepNWUsb/2LW+x8kEgewl/3yDYoszsklRag6dQAwHF6CQAEuJFR6If1nn+oOdvW9Rwnd5v85yaTj8fTH7c3Vzd4MfSRDZ7LV6rBrMNH83VpIm8PWnqI/NCuLnUFWSV3veOpQear9BgiIiI6c92TNxLcZeX6MXhlLOM7c3zTsZ33s8pNaDWGSW2dihbA1ldU9GYoolYYygCiTethueG8RRsBrYhM80dtfxH6vEVkqL9PlcdmBm3ZdZsKtBBpK6vY9f7jvL+/D97vu236a3pbtenrgoZyE3UDaMVoBdX8pv3XzqjLVE5EbTRYV7KlH1/nQX73z21/nmdbfT9s59Nie58O27pPnedHr+3xnZpoN++nlZPQi6EP7sEWIkJat1j2u5aDJVZ1iqg3CE2ICEVt+Zi+y99YFdH6KRFCpCjq5XTv9foJFX+m6w9+Wz+J5LzssW3BEnWv/aAehTfYR/sKlmi1fQsh6x8/paQbnDpx98G2rmCJuuiVExGK1W9cbkoQERHRWQuwrAvtNz/aEd91bOf9rHJjjoq4NxMcB9okOrF///7h169f+mSio+DxZY9tdRps59Nie58O2/pn6cfQB/dgExERERHRBgNsIiIiIqIjYoBNRERERHREzvv7+yDh+r///sP7+3t/EhERERERbdGPoTnI8QxxUAR9JB5f9thWp8F2Pi229+mwrX8WDnIkIiIiIvogDLCJiIiIiI6IATYRERER0RExwCYiIiIiOiKrALvJfDiOY3z5cYay0ecAmjKG7w/LGYppSsSOAyfe78/Mt62n48fITCvaKWM4jgP7RTfIfAeOb7Ndhzto2/bRZIj9uPe38vturz6f/v5IZu8/ne162Zb7DGrd9m+Ek2vKbHCecPzYeD4hIqJvoCkR92PDOed823k/q5zGKsDepsoThF4/EJPBoBfmqKphOc8ZljupKkcSepMBWPmcAwDy54kC52zHtu2jeXlC3tt/5+5L77+fqozhhcngPIEqR+j5yCxOXkRE9JWUiL1wEFtUVT6KIc1s5/2scmMzAuwIRduiHbxqFJEAkGMT15R4SCpApCjqbeU+imk9W9RFBADI7w09j02G+xwQQgD5veWPu4vFqkW7WsDVP/owe2zb0XzG9lraa//t64zb4UtpkN3nAATSot6cJ1IBoELy8OEnCiIiOqEmu0cOQKQF6sE5P8f9jh9u23k/q5zJjADbxEXw+xYCwOvfbkEBlq0MQIJ1BGIqt0MZwz/ibWM3WKKIAFRvqLXPmpcnVIjw5/EWAhWeXmwWdj6pAlPbpqfpOI6PeHBAbFIKNikoPnzHgZdUAHKEjgM/aya3d/cydphM7ZDpQnLZ29nuv0Y7pqar7t8O0rfH3A67biHJ9jVd8RrSonbUtSl23O/ISTUveKoAkT5isT5RuAgWj0jlieLTv1dERHQsDV7kSR+Pi0B1UG3O+dXTy5Zzvu28n1XO7MAAu0H58oQKArfX2/rzGpQPiUU55fUefphj3SP/obeNVQNGNwjca9xaNNpXYErTASrkiSGV5PUed4kqKK5wJbTPJ8xaxpTgBpEptaN8Rm51vFjuvzKW69q9r3IkxmPqDQ9+/3aQxfY0GXzjLaRN/e71LYTpDk75jBxAdBPI9xZ1yWKq7deFcoR3D3jbFDlv7gKrtsVqMbF/ry54h4CI6Nuo8VaZzu0uLq7GHYRDtvN+VjmzGQG27M3c9FQ6cBwPYVLJXijjr6Hq7XM8hLlAWqwmymmqChh1xx9227gpY4QykoEKZaTyAUnVBTguFn8ioEpwwKJObrxtKuhE1EvTadHWKYQpmK0qIFW36VdLLFct6lSsU1LMQdDMZUwKcCMj7EHvbvmcA+IWO+Nrq/3XS0dQ6yrTagy93VWOHKk69lrUqUq/mdyeBtmdvHiM1qkOLeoihegfsyr41+uRueMRZHxtWVeXhtVPr6gLpMi/VN68SZPd9fYnERF9C81fvAIQl57+CbxLAeAVkwkOtvN+VrkJMwLsLd7qcY8hoKJ/ASEgA+TQ1GNoMNEdrwdhZqYLAQdeqAKs38Mf7mGAs6VH9SzYbpvKE26X8NCgLDNkcQzfSzY9ngMR/hiD6G3mLmNaICPsQR6/jK+vd/ZiWu2/fjqCqtANlmiNFw8Ril5+tbuQ9U3q1b3c5ETBDRZ4TEXvmHVxfavniMvtXF8Y2dbVfen76RVugMWjvLj5qpoylqlJUYEl42siIvrCZgTY0wPsqjyEZ7yHHmDZrrBayR62CBWSu905y+PASgUnO64WthEiQlFrPehqcNwwcA0hJ9kE8+dhatt8x4HneQjDBEneSyfQiUuMr88szFnGNnpQbJseMnP/XV3sqA+mtvBwuS1qrd9QAagSb3zhk1SDY1amifR6zfX0ENu6VLnR9qhe8q+nQRnLlBeIFDWjayIi+uJmBNhm6wF2hoBmwA3wW2aFQ78rf1zmC4HVatkbdCnJwXFTdo8QPT3bbSsRq55kEUVI0wJFUaNui+29sbMccxnDNBHb9JAvt/+0HPFR7/uP1CDzPYR5BZHWfDoLEdF35F7gSp+m1DLRGXqf0ZrtvJ9VbsLBAfaI6tU85M8uqjc9bbzL992+MfNsRod2+bablwwSjYPlvgKVQhAVLVbLJRaLAEHgwlXTj+LIy9ikidimh8zff9ZPsJnDu4RQ7aBf+MhX/86CuhNTPeGl0dJD5tSlyo23Rw3I+DJKxL6HpJI55+N0HSIi+h7k3WD9dxlo8FcmOm+5k24772eVMzs4wF4PsOsW1N2mzkPEveeGrfMrLXomkYe9x7M1KNXAp9EAxUOowXHmQE71qH54b/vHyp/LzUHRlIjvVH609SPQdqfkHL4MJfiNVACv9/d4tUkPmbP/up7j5G6T/9xk8vF4+uP25uoGL4b+8N80m1IN8B0+mq9LE3l70NJD5Id2damr6iq5633HGmS+So/5Iso4RF4JpPVqkHNORETfTffkjQR3WRc3NChjGd+Zf8s7tvN+VrkJrcYwqa1T0QLY+oqK3gxF1ApDGUC0aT0sN5y3aCOgFZFp/qjtL2I8b7eeWrkJRWRYnz5VP7oFjJZXt6lAC5G2U1Xs6/39XZ80a9vW6zZqQ/Var/P0NvT3uUhrQ9l9l6G/39gsc/d27rv/9Nfu/ammrwsayk3UjXXb9fXbzbCdtnWZyomojQbramY6vk6uTg3f8f7L0Daf4Cza6gdgO58W2/t02NZ9Msbbeb4fxVut/byfVk5CL4Y+uAdbiAhp3Q5H/QdLrOoUUW/AlXEg3pTL31gV0fqJCEKkKOrl8Xqv109v+DO9PqpHdWdu+VlysXgsBu0PESEtauMf0pi4iz/r+SvjU2IOX4ZO9u7a3KnYY/8FS9S9YwrqUXhHGU8XLNFqxzvEVNpDN2B3Yjtt6wqWqIteORGhWP3G5abEeVMDNYmI6KcIsKzHcYNdfGc772eVG3NUxL2Z4DjQJtGJ/fv3D79+/dInf39lDCfMERXaBRsd1Y89vvbAtjoNtvNpsb1Ph239s/Rj6IN7sImOoikR38vHtGmPKiciIiL6Uhhg0ycr5WBD9ffgOwcNEBEREZ05Btj0yTZ/5CKiwpCzTERERPS1OO/v74OE6//++w/v7+/9SUREREREtEU/huYgxzPEQRH0kXh82WNbnQbb+bTY3qfDtv5ZOMiRiIiIiOiDMMAmIiIiIjoiBthEREREREfEAJuIiIiI6IisAuwm8+E4jvHlxxnK8f9ooylj+P6wnKGYRj0TOd7vz8m3rafjx8hMK9opYziOA/tFN8h8B47fbZf+/rgO2rZ9NBliP+79Tfy+26fPp78/ktn7T2e7XrblPoNat/0b4eSaMhucJxw/Np5PiIjoG2hKxP3YcM4533bezyqnsQqwt6nyBKHXD8RkMOiFOapqWM5zhuVOqsqRhN5kAFY+5wCA/HmiwDnbsW37aF6ekPf237n70vvvpypjeGEyOE+gyhF6PjKLkxcREX0lJWL1p3KdqspHMaSZ7byfVW5sRoAdoWhbtINXjSISAHJs4poSD0kFiBRFva3cRzGtZ4u6iAAA+b2h57HJcJ8DQgggv7f8cXexWLVoVwv1z4P6+4+wx7YdzSm2b0977b99nXE7fCkNsvscgEBa1JvzRCoAVEgePvxEQUREJ9Rk98gBiLRAPTjn57jf8cNtO+9nlTOZEWCbuAh+30IAeP3bLSjAspUBSLCOQEzldihj+Ee8bewGSxQRgOoNtfZZ8/KEChH+PN5CoMLTi83C9FQB/f3pTG2bnqbjOD7iwQGxSSnYpKD48B0HXlIByBE6Dvysmdy+3cvYYTK1Q6YLyWVvZ7v/Gu2Ymq66fztI3x5zO+y6hSTb13TFa0iL2lHXpthxvyMn1bzgqQJE+ojF+kThIlg8IpUnipN/j4iI6KM0eJEnfTwugnXHZHfOr55etpzzbef9rHJmBwbYDcqXJ1QQuL3e1p/XoHxILMopr/fwwxzrHvkPvW2sGjC6QeBe49ai0b4CU5oOUCFPDKkkr/e4S1RBcYUr9dflu8xaxpTgBpEptaN8Rm51vFjuvzKW69q9r3IkxmPqDQ9+/3aQxfY0GXzjLaRN/e71LYTpDk75jBxAdBPI9xZ1yWKq7deFcoR3D3jbFDlv7gKrtsVqMbF/ry54h4CI6Nuo8VaZzu0uLq7GHYRDtvN+VjmzGQG27M3c9FQ6cBwPYVLJXijjr6Hq7XM8hLlAWqwmymmqChh1xx9227gpY4QykoEKZaTyAUnVBTguFn8ioEpwwKJObrxtKuhE1EvTadHWKYQpmK0qIFW36VdLLFct6lSsU1LMQdDMZUwKcCMj7EHvbvmcA+IWO+Nrq/3XS0dQ6yrTagy93VWOHKk69lrUqUq/mdyeBtmdvHiM1qkOLeoihegfsyr41+uRueMRZHxtWVeXhtVPr6gLpMi/VN68SZPd9fYnERF9C81fvAIQl57+CbxLAeAVkwkOtvN+VrkJMwLsLd7qcY8hoKJ/ASEgA+TQ1GNoMNEdrwdhZqYLAQdeqAKs38Mf7mGAs6VH9SzYbpvKE26X8NCgLDNkcQzfSzY9ngMR/hiD6G3mLmNaICPsQR6/jK+vd/ZiWu2/fjqCqtANlmiNFw8Ril5+tbuQ9U3q1b3c5ETBDRZ4TEXvmHVxfavniMvtXF8Y2dbVfen76RVugMWjvLj5qpoylqlJUYEl42siIvrCZgTY0wPsqjyEZ7yHHmDZrrBayR62CBWSu905yuPASgUnO64WthEiQlFrPehqcNwwcA0hJ9kE8+dhatt8x4HneQjDBEneSyfQiUuMr88szFnGNnpQbJseMnP/XV3sqA+mtvBwuS1qrd9QAagSb3zhk1SDY1amifR6zfX0ENu6VLnR9qhe8q+nQRnLlBeIFDWjayIi+uJmBNhm6wF2hoBmwA3wW2aFQ78rf1zmC4HVatkbdCnJwXFTdo8QPT3bbSsRq55kEUVI0wJFUaNui+29sbMccxnDNBHb9JAvt/+0HPFR7/uP1CDzPYR5BZHWfDoLEdF35F7gSp+m1DLRGXqf0ZrtvJ9VbsLBAfaI6tU85M8uqjc9bbzL992+MfNsRod2+bablwwSjYPlvgKVQhAVLVbLJRaLAEHgwlXTj+LIy9ikidimh8zff9ZPsJnDu4RQ7aBf+MhX/86CuhNTPeGl0dJD5tSlyo23Rw3I+DJKxL6HpJI55+N0HSIi+h7k3WD9dxlo8FcmOm+5k24772eVMzs4wF4PsOsW1N2mzkPEveeGrfMrLXomkYe9x7M1KNXAp9EAxUOowXHmQE71qH54b/vHyp/LzUHRlIjvVH609SPQdqfkHL4MJfiNVACv9/d4tUkPmbP/up7j5G6T/9xk8vF4+uP25uoGL4b+8N80m1IN8B0+mq9LE3l70NJD5Id2damr6iq5633HGmS+So/5Iso4RF4JpPVqkHNORETfTffkjQR3WRc3NChjGd+Zf8s7tvN+VrkJrcYwqa1T0QLY+oqK3gxF1ApDGUC0aT0sN5y3aCOgFZFp/qjtL2I8b7eeWrkJRWRYnz5VP7oFjJZXt6lAC5G2sgr9/f7e39/1SbO2bb0uozZUL4t17u9zkdaGsvsuQ3+/sVnm7u3cd//pr+n9qU1fFzSUm6gb67br67ebYTtt6zKVE1EbDdbVzHR8nVydGr7j/ZehbT7BWbTVD8B2Pi229+mwrftkjLfzfD+Kt1r7eT+tnIReDH1wD7YQEdK6HY76D5ZY1Smi3oAr40C8KZe/sSqi9RMRhEhR1Mvj9V6vn97wZ3p9VI/qztzys+Ri8VgM2h8iQlrUxj+kMXEXf9bzV8anxBy+DJ3s3bW5U7HH/guWqHvHFNSj8I4yni5YotWOd4iptIduwO7EdtrWFSxRF71yIkKx+o3LTYnzpgZqEhHRTxFgWY/jBrv4znbezyo35qiIezPBcaBNohP79+8ffv36pU/+/soYTpgjKrQLNjqqH3t87YFtdRps59Nie58O2/pn6cfQB/dgEx1FUyK+l49p0x5VTkRERPSlMMCmT1bKwYbq78F3DhogIiIiOnMMsOmTbf7IRUSFIWeZiIiI6Gtx3t/fBwnX//33H97f3/uTiIiIiIhoi34MzUGOZ4iDIugj8fiyx7Y6DbbzabG9T4dt/bNwkCMRERER0QdhgE1EREREdEQMsImIiIiIjogBNhERERHREVkF2E3mw3Ec48uPM5Tj/9FGU8bw/WE5QzGNeiZyvN+fk3fr6WdTS5L1T35exnAcB/aLb5D5DhzfZtsOc/C2bdNkiP143l/Cz24rnW3b2Zb7DGrd9m8EajLEvfOE48fG8wkRURnzfPtlNRl8Qwy5efnYFb405fD34tC40ra+pswG8azt75RVgL1NlScIvWFw1mQ+vDBHVQ3Lec7MIG5PVXK3c0eZlM85ACB/PsVa7mffbdumeXlC3ttXNr5CW9GZazL4XjI89qocobf7REtEP0uT+Qjlzw79RGUMLxz+XtjElWUcwnjY2NanyvXjWdvfqRkBdoSibdEOXjWKSADIsYmzSjwkFSBSFPW2ch+pQnJnvhKZ1GS4zwEhBJDf72w4ycVi1aJdLU7474N7bNux7dVW+/qMNqZTKB8SVACiot6cJ1IBoMLTy4ceVET0ZTQoYx9eMrMXiM6Lu8BqFEO2aIsIACDSR0z/z1yJOMwBiN7vRYu6SCGQIzT0TmPrRZltfQ2ye1kuNfxOJQ/m5XZmBNgmLoLftxAAXv92P4gBlq0MiIJ1Y5nK7VDGm9sJlt3xUoQ0FUCV4G5G5Ne8PKFChD+PtxDWP/CnTl/YY9uacssteLn+8sSVI7RMMbFtq0bbh9NV99fRRzwoONHG2nb52jEiU2pMV7aG20U76toU2/eYpEkixe/1icJFsPiDCED1VmsFiejnKRE7HsIciIoUMhSj70MFuiLF43R0DTR/8aqC8OUmsIQbLPCYCiB/Hv/WNxnukgpRUYyPG9v6mhc8VSr4H/xOPSKVAe3W2O/AALtB+fKECgK311saB43qrdpVTnm9hx/mWF+vWnbHdy7UxtunUzR4eaqA6AaBe41bAVRPL1sb7rPM2rYyhu+FR74Fb9lWZSzThLr3VY7EuNw3PPj9dayQJ9723O4mG21XpW2Xe30LYbpjUj4jBxDdBPK9RV2ymEp7WhfKEd494G1ThGbyLuXF4kPvSqXJ7pEDEJfeoCwR/UyXUYG6XWEZXOgf0Rcn0zcE0sdD71C/Yth3WyL2ElRRgaX6qZ9H1ad63VdTwf/Vxfb1bjWGSW2dihbA5EuktT6LUrep6MqJNi30z3VFG63rLFpZa90W3fKj7RXI9YzaQr5pBdBCpKqedl3/aH2LqAXQrqvX309S2zdYxuHe39/1SXts26bto2JTar0ve/MO6t5Fbxv9fdv2li3abnVqVc60fsN1keU2+1pv403dg+0qVJvo82k7sYjQ21bburrjUrRpV64uNuu/+0A5K6bj63PUbRGNzy3ijNrzfNrqe2M7n9bXbG91Hj6j84ONr9nWJ9DFMVb70/Ab3P+t7sUabfc7v44ZTMfNvPp0XRxlWnX0YuhRNN3/sLMzwI66YFhXtBFEK/pBtrmgojZ6FLB2gdD2IFAPFLv13gR1ehCqpg6Crk253TteD/6Ow/SFnL1tWw5eub294HdGgG3VVmrZejsPTe1TvT6tjbfUrW+HfN8/5rS6beuaKreljc+Z6fj6FHXRRutzQ+915O/TIc6mrb45tvNpfc321n8bvoav2dYfT49Ddtkeh/bqKaLtv/uKdX2arrNQr6+DXgw9I0XENMixRV1EqPIQnvGefoBlu8Jq1aKtC0SWA/TE7bXW7e7i+lYYbgNs59qkU6gBe10OsszDVaNOTXk9Z8Jq2/qpED3BzSgjyc7Mtrq62HrzRBKXGCYDeLgUgwlD9RsqAFXibfLK1Uvmkm+OEZkm0ssR19NDbOtS5Ubbo1JkaB8NsrsQedUfPCLPJ6JKJs4nRET09ZV4zgFEf7YMbBxyFyv5+7CeIgco1mnvR7jJ4If5jgGTklV9A2qwrcoZry1yT2YE2GZusEQRmQOsATfA71QA1RMmxsR9ABeLxxRiS2AvB+xNyXG/LXr9VLu37di+XFtpOeLy0YIRDNccdGrGwSPyfPLH5nxCRERfk97ZZckNlr0nkaywDFzUbxWAK1y4mxhl2GnWdQKGo2dt76pvo0HmewjzCiKtrZ9qdnCAPdI9TPyAHqjxEwTUwLrRRltw1ajQKsFd9lf7UNUrUtSj3nk58tQ4gO9cbN02yfSc6u4Z1vPMbyvrJ8bM4V1CAIgKfR02X5LNlau681E94aXprphvsP5K29alyo23p8bb9BUH7cm7nH+3ioiIvobjdXap3/XRnfB9meorEfsekkr2cE8OeDQ4OMBuylg+Z7Bboe62eR4i7j8doIzlbXdxi50PEsnD3uPiGpTZHZJKC45m2KRTJMMHjpcPkKukp6QAQIAbGTWesMd9vsltm9oP3XMhR/thR0Azp626nuN++kqTycfj6Y/bm0vVnYc+ssFz+Ur5OD/t0Xxdmsjbg+GK2bYu9wJXkNuzacsGmT/xAHvardem/bZvyhh3tucJIiL6Yhr8fdWD2F3U43qd3uNxm3L9G9zFJe5iZegoU4/pi4peB5xdfeiedFIJpLXs4Z5lkJ3d7jfIEfpoyiJSIzH1l5Y4PnoChRqoF5nm1wbDjeYdD3Ib6Aak9Qar7Uyy15PZR8v8vEGOA4Zta1v7/dDfv6OBfMq+baW/dred/vQPQ7mJus3r33taian9bOsylRORHKQ3MdjhXJmOr09halP1OpcmPZu2+ubYzqf1NdvbPFjt3H3Ntv5IFvtxFGttiUNHMYTOvDyr+nqxlfk1jimw3yBHMyEipHU7fNZgsMSqThH1csWFiFDU/dv3W1z+xqqXfC5EiqJe7tV7vdalU6xZJNkHv+XDxM89H3S0bYphP8CwH9zFn3WZ6q029DDv0VbB0jiAwGJcwG7BEu1ou6Zu33QDZCfugNjWFSxRF71yIkKx+o3LTQmaS29TyHYdnU+IiOh76P7kZeZ/HZgGJYqoQG2ZD62zqk894GBfjoq4NxMcB9okOrF///7h169f+mSio+DxZY9tdRps59Nie58O2/pn6cfQB/dgExERERHRBgNsIiIiIqIjYoBNRERERHREzvv7+yDh+r///sP7+3t/EhERERERbdGPoTnI8QxxUAR9JB5f9thWp8F2Pi229+mwrX8WDnIkIiIiIvogDLCJiIiIiI6IATYRERER0RExwCYiIiIiOiKrALvJfDiOY3z5cYZy/N/aaMoYvj8sZyimKRE7Dpx4vz8m79bTz6aWJOuf/LyM4TgO7BffIPMdOH63bfr74zl427ZpMsR+PO/v4Ge3lc62rWzLfQa1bvs3wo9VxlvarSkR988dfmw8xxDRz7L1vEFnY+t+OuT8bjuvZTnbONW2nM4qwN6myhOE3jA4azIfXpij6v2Je5Un8JyZQdyequQO+8SZ5XMOAMifT7GW+9l327ZpXp6Q9/aVja/QVnSemsxHKA8fgxKxFw6Ox6rKR+cYIvpZtp836Fxs30+HnN9t57UrZxun2pYzmRFgRyjaFu3gVaOIBIAcmzirxENSASJFUW8r95EqJHd2VxhrTYb7HBBCAPm9ZRDrYrFq0a4WcI3vP8Ie23Zse7XVvk7RpnQaDcrYh5dMX8012T1yACItUHfnjlSeO+4/9kAjorO0+7xB52D3fjrk/G47r1052zjVtpzZjADbxEXw+xYCwOvfbsUDLFsZEAXriMhUbocyht+lokx075tFSFMBVAnuduywvublCRUi/Hm8hUCFpxebefX0Bf39se2xbdqtkmFbyvWVX4gcoWWKiW1bNdo+nK66v44+4kHBiTbdcQtIptSYrjANaUg76toU2/eYJNnuHsIciIoUkf4xAKDBy5M8mT0ugvVFa7B4RCqA6unlg75XRHSebM4b9Pls9tMh53fbeW3L2captuXMDgywG5QvT6ggcHu9rX+xQfmQWJRTXu/hhznW10FVjtDztwRoQxddY1qnU6idEt0gcK9xu3Nnf55Z21bG8LVbJXPbcsyyrcpY3lbp3lc5EuNy3/Dg99exQp5423O7m2y0XfIW0KZ+9/oWwnSFWT4jBxDdBPK9RV2ymLpNtC6UI7x7wNumCO1wGRWo2xWWwYX+kVLjrQJwdaHdrXBxcQWgekM9mE5E393u8wadg9376ZDzu+28tuVMbONU23KzAmzZw7nuCXUcOI6HMKkg0kcsjMtRvY+OhzAXSIvVRDlNVQGj7v0KyYMeLU1xsXhMIWzTKcoHJFUXdLlY/ImAKoH14k7KdtsaZPcyIIyKep3WU3dteZehUekXcppMAVrt2kFWbSWXDQik6rZKXUSAqbe7ypEjVfu6RZ3Ka9/p3O4G2Z08uAfbVag26VZEBf96PTJ3PIKMry3r6m4TQSDtytUFUuSzc9d/rgCLZdejMKH5i1cA4tLTP4F3KQC8YkeHARF9KxbnDToDFvvpkPO77by25QZs41TbchszAuwt3uqJQK/GWyUgBGRQF5p6MA0muveRPxtu+U9wF3i0TKcYBl0AghtEW4O8T2azbc0LnmR0jeXm3gbcxQoy1n2CHuvasGortez+hZcbLNEaA/gIRS+/2l3I+ib16h5sV6DaZH2MuLi+1XPES8jVv4GMry3r6r606SMWXTk3UBc6RERE9DXZxqm25TZmBNimQY6yZ7LKQ3jGe/oBlu0Kq5Xs8Yt29rpK4vZ61L1/fTt19THNtUmnUAP2hj30IeSkGQH9iVltWz8Voie42RrCTpvZVlcXejBtIC4xvNb0cLktaq3fUAGoEk+7m9Llkm+OEZkm0us119NDbOtS5Ubbo3rJiYiI6CuyjVNty23MCLDN3GApe0QNAdaAG+C3zDLfq+d0P7vTKeSAvSm7R7Z+nt3bdmxfrq20HPFR7zudF/cCV/o0pZaJddCvcYiI6As45PxuO69tuSm2capluYMD7JEmk09aMPZo26ne9DR0NbBuV+OYDNIp/mofbkacdjnAm1cBmUlhGMB3LrZum2RKc+meYT3P/LbaNcJ2L94lBICo0Nehe/XzotSdj+oJL42WHjKnLlVuvD1qQAUdibx7oR9HQIO/MrFOu9tBRERfwyHnd9t5LcvZxqm25SYcHGA3ZSwfKt6teHfbPA8R955j1pSxvO0ubrFj4CWQh73HxTUoszsklRYczbBJp0hkOkNHDdgbp6QAQICbA3KVT2Vy26b2Q/cQ+NF+2JF+M6etup7jfvpKk8nH4+mP25urG7wY+sgGz+Ur1QCE4aP5ujSRtwctPUR+aFeXuiqukrteWzbIfJUeQ0fSjfROcJeV6jhpUMby+28+9oiI6Pwdcn63ndey3FR8pMeptuWmtBrDpLZORQtg6ysqejMUUSsMZQDRpvWw3HDeoo2AVkSm+aO2v4jxvN16auU6dbquU6iVKCLDOvWpZaBbyGiZdZsKtBBpK6vQ3+/n/f1dnzR729rWfj/09+9g/p5920p/TbedNn1d0FBuom7z+qv5AXP72dZlKieiNhqs69dgOr5OS37Pze2mPhu9DPvuBD6/rX4GtvNpfc323nbeOF9fs60PsW0/WZ7fR7FWaz+vbTnL+Mi6nIJeDH1wD7YQEdK6xbLftRwssapTRL0BYEJEKOrdjzUBAFz+xqqI1k9oECJFUS/36r1e69Ip1rqUgT/T6xT8nv/0ks8w2jbFsB9g2A/u4s+6TGV8IswebRUsUff2IdSj8AbHyb6CJdrRdsn6x08p6QbITtwBsa0rWKIueuVEhGL1G5ebEnQUAZZ1YThmD/z+ExHRJzvk/G47r2U5Q3xkjFNtyxk4KuLeTHAcaJPoxP79+4dfv37pk4mOgseXPbbVabCdT4vtfTps65+lH0Mf3INNREREREQbDLCJiIiIiI6IATYRERER0RE57+/vg4Tr//77D+/v7/1JRERERES0RT+G5iDHM8RBEfSReHzZY1udBtv5tNjep8O2/lk4yJGIiIiI6IMwwCYiIiIiOiIG2ERERERER8QAm4iIiIjoiKwC7Cbz4TiO8eXHGcrxf2ujKWP4/rCcoZimROw4cOL9/pi8W08/m1qSrH/y8zKG4ziwX3yDzHfg+N227Xq/v4O3bZsmQ+zH8/4OfnZb6WzbxrbcZ1Drtn8jUFMii3vnF99HbDqhENGPV8Y83355h5zzmxJxP670Y2P8aV8uG5RzpsoN2MepVgH2NlWeIPSGwVmT+fDCHFU1LOc5M4O4PVXJHfaJM8vnHACQP59iLfez77Zt07w8Ie/tKxtfoa3o3JWIvRBJ/+CrKuShd8CFGxF9R03mI5Q/O/RlHXLOl/MOZ81H8ad1uSaD7yXD2KfKEXr+1hirjEPYHoYzAuwIRduiHbxqFJEAkGMTZ5V4SCpApCjqbeU+UoXkbmaPZ5PhPgeEEEB+v7WBN1wsVi3a1QKu1ftj2GPbjm2vttrXR7QhnYPuRCWiAnV3TqlTRADy+08+xonoTDQoYx9eMrMXiM7OIef8JruX86bdvDWKVMaV970gxLZc+ZCgAhAV9SZOTQWACk8v5jWZe5E3I8A2cRH8voUA8Pq3W6EAy1YGRME6IjKV26GM4c/qtu9ESFMBVAnuZkR+zcsTKkT483gLsaWBh/T0hV3vD7XHtmm3SoZtKddPnrhyhJYpJrZt1Wj7cLrq/jr6iAcFJ9pwxy0gmVKjX9nCfHtnR12bYvsekzRW4lmeBfG4DDYXT+5iff7gBRXRT1cidjyEORAVMhCjr+qQc36DlyfZcfu46OZ1ESwekQqgenpZx1x25RSR4vc6UHURLP4gAlC91f1SUpPhLqkQFYX1cXhggN2gfHlCBYHb6+mmARp1tbCrnPJ6Dz/Msb5etei277voGtM6nULtlOgGgXuNW9OOOBOztq2M4Wu3Sua25ZhlW5WxTBPq3lc5EuNy3/Dg99exQp7suF3UZKPtkreANvW717cQpjsm5TNyANFNIN9b1CWLqbSndaEc4d0D3jZFaI5uP/zZdlIlop/uMipQtyssgwv9I/pKDjrn13irAFxdaPO6uLgCUL1BhsS25QDvUnZWPvR6yta935feeppUIvYSVFGBpQodbMwIsGUP57on1HHgOB7CpIJIH7EwtpjqfXQ8hLlAWqwmymmqChh171dIHvRoaYqLxWMKYZtOUT4gqbqgy8XiT6QaXi94Dmy3rUF2LwPCzS2QFnXXlncZGpV+IafJFKDVrh1k1VZy2YBAqtKE6iIy33qpcuRI17eL6lReG07ndjfI7uTF2mC7CtUm3Yqo4F+vR+aOR5DxtWVdXdoTBNKuXF0gRT47d536BC69BmXWvzMwY8ALEX1zARb93k764vY85zd/8WoMfFWgjFf8bWaUA+AuHlFEAnnorWNaL6kgomIUB5VxiFykqOdE1/MC7C3e6olAr8ZbJSAEZFAXmnowDSa695E/G275T3AXeLRMpxgGXQCCG5kTNBnkfTKbbWte8CSjayw3uTpwFyvIWPcJeqxrw6qt1LL7F15usERrDOAjFL1bQ+5C1jepV/dguwLVJutjxMX1rZ4jrm5RRTeQ8bVlXd2XNn3EoivnBupCh/bR/H0FADzdeQiT/p0BOeDFJlWJiIi+hrM75zc1nl/HPWTV699hPFvGsoP4cX7P+4wA2zTIUfZMVnkIz3hPP8CyXWG1kj1+0c5eV0ncXo+6969vh1cfNlybdAo1YG/YQ69Gic4J6E/Matv6qRA9wc3WEHbazLa6urA4HMUlhteaHi63Ra31GyoAVbK56uxffQ6uUK+1HHE9PcS2LlVutD2ql5z2VaFC1BsMLc8nAkCVPIyOJyIi+srO5ZzfILsLkVe9u9LdulTJJp5tMvhhviVLY7sZAbaZGyxlj6ghwBpwA/yWWeZ79ZzuZ3c6hRywN2U46vS87N62Y/tybaXliI963+nTuBdXMuXmcdkbDC3PJ4/p/ItpIiI6Xwed890LXOnTlFomXePCnVGuf5d9cPd6iT+9eLaLeYadcF2nYgjH2Z6VcXCAPdJkMrfG2KNtZzyCUw2s6xpnjkE6xV/tw82I0/UjY9YvOVLUOIDvXGzdNsmU5tI9w3qe+W1l/cSYObxLCABRoa9D9+rn+as7H9UTXhotPWROXarceHvUgAqaz7uEQIXRV52IiL6fg8758s62HmMADf7KpGt1J9y23DQ9V/sQBwfYTRnL5wJ2K97dNs/DQeJ6U8bytru4xc4HieRhLx+nQZndIam04GiGTTpFMnxAuBqwN05JAYAANwfkKp/K5LZN7YfuOY6j/bDjgJrTVl3PcT99pcnk4/H0x+3N1Q1eDH1kg+fylWpA7fDRfF2ayNuDlh4iP7SrS10VV8ldry0bZL79A+dJM9H2TRnjzvY8QUREX8NB5/zuKSAJ7rJSxRANyljGhpu4xLJc7zd927q4i5Wh4009pi8qtA49g1ZjmNTWqWgBbH1FRW+GImqFoQwg2rQelhvOW7QR0IrINH/U9hcxnrdbT61cp07XdQq1EkVkWKc+tQx0Cxkts25TgRYibWUVu97beX9/1yfN3ra2td8P/f07mL9n37bSX9Ntp01fFzSUm6jbvP5qfsDcfrZ1mcqJqI0G6/o1mI6vT9E7bvXXuTTp2bTVN8d2Pq2v2d4yPuD59guzPeePYq12s/9HL/133bKc6TfdtC4j249D9GLog3uwhYiQ1u3w2YDBEqs6RdQbACZEhKLeEe13Ln9jpRLfAUCIFEW93Kv3eq1Lp1jrUgb+TK9T8Hv+00s+w2jbFMN+gGE/uIs/6zKV8Ykwe7RVsFwPXpDko/BmPuXGLFjKf38abJesf/yUkm6A7MQdENu6giXqoldORChWv3G5KUFzuQus6gKRfMyQZDqfEBHR13fQOT/Asi4M8YweG1qW03/TMWdd7Dgq4t5McBxok+jE/v37h1+/fumTiY6Cx5c9ttVpsJ1Pi+19Omzrn6UfQx/cg01ERERERBsMsImIiIiIjogBNhERERHRETnv7++DhOv//vuv/5aIiIiIiCy8v78DpkGOTMj/fNwH9JF4fNljW50G2/m02N6nwwdH/Cwc5EhERERE9EEYYBMRERERHREDbCIiIiKiI2KATURERER0RAywiYiI6GyVsQPfj5GVjf7RQFNmiH0ffra9HH2epozh+w4cR778OIP13mpKZLG/ntfxfcSGY6Ips8EyHD+GoRjQlIj76zJVrqeMHThxqU82YoBNREREZ62qciThAyZDmybDXZggryr9EzoTTebDC3P0d1GVJ/CceHq/rpWIvRBJ3p+5Qh56GMS7ZQwvTAbLQJUj9HwMr7tkfcPqcoTe9Lo0mY8w16dOY4BNREREZ05AiBz3E73TzcsTKiEg9A/oTJR4SCpApCjqFm3bom1rFJEAkON5KqpVyjhEDkBEBepWzV+niADk910veIPsPgcgkBb1ZhmpAFAhedgspMnuZX1pV19XznSMNShjH14y7+KNATYRERGduSvc3gpUTy+GlIIGL08Vottb/QPJMhVAT19wHB/xINhqkPkOHD9DOUhD0MvRWIBl26JdLRC43TQXwe9bCACvf7e1X4lnGQ3jcRlgM/tiXacLAM0LnipApI9YrBfiIlg8IpULWQfiL7IgHhddfZtyw2OsROx4CHMgKmRAb4sBNhEREZ29i+tbiOoJL3os1rzgqYpwc61Nh0wd8Y2pAMOUAVP6AlAhT7QUBACoEoSDNISJcrRDg/IhQQWB2+t12DxWPiMHEP1RgfQUd4FV22K1mCh1daHmr/FW9d93XFxcAajeUPemXkYF6naFZXDRm7obA2wiIiI6f+41bkWFJy3CLh8SVNENgsFUyB7nOxnAReuUgRZ1kUIMUgZUjyaiXvqCTEEQAHJT/kIvVaFOZWKKsRwZqDsBjocwF0iLFaZi4g2BS69BmcXwdwxy1DXZHZIKiG7UEdL8xSsAcenpReFdCgCv2HSoB1j0e81nYIBNREREX4CL61GaiEwfWAdPfb2UgeUmLwFusMBjKoD8WQ1oc7FYtWjbJTw0KMsMWRzD9xKYs24jFL2gy138mZU6QDXeKgEhIHOjQ30A4lDz9xUA8HTnIUzyzT5Rgxy3PTWmKWOZOx0VWBoOkY/EAJuIiIi+BPfiCuiniZTPyBHBFF+jfkMFoEq8Xl61fMkBa72eyiaD7zjwPA9hmCDJe4GcTlxi2Pfp4ZKjK2cIsGxXWK1atHWBCBWSu12P66tQaXcY6iKCAFAlpqfLqIGJYQ6IFPWpo2sG2ERERPRlBDeIsEkTKWX3tSE9ZI4SseqtFlGENC1QFDXqtmDP9EdzA/yWIwvHufWKe3ElnwzyuOwNkATcYCnvRAxSOqBSUDyEeQWR1ptBkB33Alf99z21TM7GxT45IRoG2ERERPRFBLiJVK9lk+F+Kj0EALxLCABR0curHrxU7q/KyY2KFqvlEotFgCBw4arpdATqDoHtn7QMeJcQqPDWH3k4qUTse0gqmXdvHvAo7ziMn0jT4K9MztbuUOyHATYRERF9GcFNBOAVzw9PqKbSQ9ANigTy0B/+C2RTqkF2wz8VyZ/LTcDVlIjvVA72+vFutDe1L5CHg4GJ6xxpcYvJB4lM7MemjHGnzVvGIfJKIK1Xg7z7oe5pIQnusm6fNyhjORhS3F7vNahRxwCbiIiIvg6VJpLn1Y70EBeLP5EaSNfLw/ZCGUilv+W8veDP65XpP9qPDiX3hWzmzb7wQvXHMI+9NI4yhuM4vcceulg8qie/aPNW/cf3qTsaQIXEG+bcy9fmgipYyvSfKun2uUwpASL8MfZ6z8cAm4iIiL4QmSYCbEkP6QRL+Y9//UGIQk8fcLF4LLQyEdKiRhGNn4tMewqWWGn7QogIRW3xmD53gVVdIJKPHpFEhLRuN08HUYNa7QRY1uN9XtTLLRds8zht27b9Cf/+/cOvX7/6k+jEuA/oI/H4sse2Og2282mxvU/HcRxoYRZ9Y/39zR5sIiIiIqIjYoBNRERERHREDLCJiIiIiI7IeX9/Z3IQERER0ZH9999/+iT65t7f3wEOcjxP3Af0kXh82WNbnQbbmb4rDnL8WTjIkYiIiIjogzDAJiIiIiI6IgbYRERERERHxACbiIiIiOiIGGATERHt0GQ+HMeBnzX6R0qJeOvn56ZB5jtw/AxyjfX3p6CWGZf6BwNl7MD3Y2Tl9jVrygyx73+hffADNSVi34HjyJfvx9ixW9fk/u3NG+8+Vst49/GFHeWaMoY/c7lggE1ERGSvSu7A+O30qipHEj7AHAIBaDLchQnyqtI/obNRIvZC5L1dVFU5Qi+e3q+dMoYXJsN58wSeMz1vk/kIc33q2LZyTebDC3P0D6tdy+0wwCYiIrJWIbmz68H6WlwsVi3a1QKu/tFZEBAix/3E1U3z8oRKCAj9AzobTXaPHIBIC9Rti7atUaQCwPR+lUrEYQ5AICpqtG2Ltm1RFykEcoSjnucGZezDS3ZdbO0qV+IhqQCRoqjlMtu2RhHJdX7WF6thgE1ERGQlQpoKoEpwtzUg6NFuiTujW+KbNIkuDcVxYpRlBl+lnDRlDN9x4Dg+4m6562nmW9b6be3BvEamFJEGWdytk6rDdD/f8rb/ZjtM7bDLFW5vBaqnl9G2Ag1enipEt7f6B9Kc9dvaZps2KsusV1YvR2NyH0GkeFwE6iLORbB4RCowsV+V5i9eAYj0Ectgc/nnBgs8pgLIn3u9ySVix0OYA1GRIlpP19mUC7Bs5UXnZrEugt+3EABe/06uMcAAm4iIyN5FFxDYpIqUMXztljiqHKHnj+d9vcdd15MmLuF5avrbA+7CHPKTCnlyh6zM4K+nqVvWvV48021tOa+HUWffpAaZ7yEZrjzyUKujyUbbKG/7D7dxvU7rQjnCuwe8bYrsdHF9C1E94UVvu+YFT1WEm2ttOvZYP5s2qxKEYdIrO1GOemq8VQCuLrQ7JC4urgBUb6gH0+d4RT/WvYwK1O0Ky+CiX2jEttxQg/IhQQWB2+vt93oYYBMREVlzsXhMIXamijTI7mVAObitnQpzmklVAakq10vTqPIcV2r+uojkvGGyKVunMi3i9e96sOLLUwUg6t3W3pTLd93X7jQveKoAEXW38011NMjuZLAxvnVfIXnoyqlb7RBIu3J1gRT58OJjF/cat6LCkxZhlw8JqugGwWAqZqzfHm3Waxe5TyfKkdT1Ql92V44b3qUYBckD7gWuoC5qe7cemjLbXJSuBVgsux7ybWzLddTdC8dDmAukxQqLHTMzwCYiIprDVbemt6WKqAAVUTG8rb1YQcbJek9shD+mX+ze/G5wI29lixSPXVn3GreDxGOVS90u4aFBWWbI4hi+l2x6j2eoXu/xkGUomwZwF1i1LdqlCmW7IHzXrfveLf5FV84N1IXKHC6uR2kiJZ5zILoZh9fW6ze7zSIUveDMXfyZSDGg4wjwu7swDb11Co8XTu2fj1DjrRIQAmo9DHehNAywiYiIZnItU0VMgV9wYwjHxCXGfXvmHr/hbXZ1i72vkfnbnuchDBMkeS81w5a7wJ9I9qznSYLQk4GNH2eb/OX6DRWAKtkEPevgJ6k2vZKq3NWFdgExujjYzb24Gl6clM/IEcHQzPbrh5ltNtpXHi5nbgfN4y5WqIuod0Em70p0dw8+XoBlu8JqJe++RKa7UBoG2ERERLPZpoqcWolY9byKKEKaFiiKGnVbzO5lDZYynSLqxTBVntg9Vu2jBDeIsEkTKWX3tSE9ZI7jtRlNUGkeJrVMzoZ+/aVzg6W8g9K2aNsVloFrPe9RuapHfXQXaogBNhER0T4GqSJ/9U+Bibzc8nniobvHoNIxoqLFarnEYhEgCFy4avpcbrDAcqVyjesCaYTNI8q8Swi1rHXe8uCl8lRVufFTF9TAt1kC3ERAlTygbDLcT6WHYMb6HbnNyET28o+fFtLgr0zONt7B2U6mB+03rwV1V2PqD2h2YYBNRES0p02qSIJB2NylP+Th4NF26z+1ELfY8RCCg+TP5SaQaUrEdypfdT0Ycocylikh2aYe1/VwcSkACFx6m23MQ3/4L4tNqQaEqZ7u3iC1TVs0yPxw2GaWZIrNK54fnlBNpYdgxvopB7cZbdE9LSTB3fqYalDGd0gqQNxebxlw2A0w7D1esSnXx8/2eQ8w9R0uY5litOM7zACbiIhob12qiM7F4o/MGc37A7O6p2k8ftAfuvSCAq/LOdYfFWgj+K0uHHr1OB7CQWAht1EffOZ4oQya0t8qdSPAUj0BZdMWHhJEg/QTaypNJM+rHekhlut3rDajrYKlTLnZHFMewrwaD/BVF3ebjmM5uBXIEXrDfTgY8Ht0E99h9ac3u77DDLCJiIgO0aWK6IIlVvUwhxkiQlHvfsTX/lwsHovRMtOiVk8vsX3esIvFqkY6rEg+tq//b4/BEu1oG+UAtFV/I4PlMJ9bRChWv3G5KTGDTBPBxCDSAav1O1ab0XYBlvW4nYt6ueUiSTINchwdix/B8B0Wlt9hp23btj/h379/+PXrV38SnRj3AX0kHl/22FanwXam78pxHGhhFn1j/f3NHmwiIiIioiNigE1EREREdEQMsImIiIiIjsh5f39nchARERHRkf3333/6JPrm3t/fAQ5yPE/cB/SReHzZY1udBtuZvisOcvxZOMiRiIiIiOiDMMAmIiIiIjoiBthEREREREfEAJuIiIiI6IgYYBMR0Q/UoMxi+L4Dx1Ev30eclWhGRTPEfoxSn/7hGmS+Ayf+6CXbLafJ/E1baS/fj1GOGu6Y1Dr62Xj/7DLafwfURQdpyuF3zo8t9kGTwTccc5uXj6yZUW5db4m4vy4Tx3AZ6/Wo8oPKxhhgExHRD9Mg8z2ESY6q6k2uKuRJCE8LvJqXJ+T9cjRSVTlCz8GOGP1TcP+dhybz4YXD71yVJ/Ccz7h4LRF74eC4kMewvi4N/r4OJlhjgE1ERD9L+YCkAiBSFHWLtlWvukAqAFQJHk7/i/9FRCi69lq/atRpBAEgD7VewqNxsVi1aFcLuPpHsx2zLrJT4iGptO9cjSISAHI8b/u+uQusRsdci7aIAAAifcTCnVEOQJPdIwcg0gJ1ty6pXJf7/gHcvOCpAqJiXO+qq2wCA2wiIvpRmr+vAATSxwWC/m+kG2CxKhAByJ/LdSqBl1QAcoTabWH9drfj+IiH96DXqQhlmfXK6uVU6TLe3OKeuF2NOcuNy15ax6Y+2+XYc+EullgVEYAKTy9ahTtuxct11HsOIXsZnS51xZzWsb0tpvafuS59PcdtM29/Ul+AZSsvajbfORfB71sIAK9/57ZfiTjMAZHicWugayrX4OVJBvuPi0BdZLkIFo9IBVA9vWyOi/oNFQQuvW7CDK3m/f1dn0Qnxn1AH4nHlz221WmcvJ2LqAXQirTWP9HUbSrQAptXN0+disH0/isqpuc3l5uoT0RtJNCiV9BYblSfWq4QrVjXlbb11PyG5ZjIeaN2ulS3XLksOSndrMPgJdp186syo8Wr/SSnj+s2bsugLcbtL/ffuK62iHavp6G+8TKHMA6zaK1ui0hvYzu285nLFW0E8/Euy2+O8e6YT/vHh4gml9vf36M9f/ITHY1wH9BH4vFlj211Gp/RzkXUBWeiFVHUpkXR1hM/muPAsgu0orboz9MFk+sf7l5AFhXjwHBdTv3gQ7RpV2FdDOYd1me/3OFFhO1yzMbtMDYMULr1EG3UW+G6mFhfbfnGutZBsW1bmNZ7qi4M17PbT4Zy2/fnBgNsk/6FimjTcbNtZ9jHRlPl1HTTBbbcl5uAXB6D5pdebavtb6aIEBHRjxMsV6jrAmkEIM+RhCE8T93u35kzoXJ42yU8NCjLDFkcw/cSmMfSRSiW3a1owF38gcwKVZq/eO1yRLv7526AxWMK0S+3x3L/9G+fWy/nSFT+qkgfsezl4rjBAo+pAPJnlRbi4vpWAPl9L3+7xHMOILpBsJ6zb25bbKHWE1ExXM/FCjLr5QnDrJcd+5N2qPFWCQgBABWSmXn75UOCCgLpb/OR0bEtN60b4CiQFvU697pWOd35/fYnoDDAJiKiH8l1AyyWKzUwqkZdpIgEkIfezkdwdY8E8zwPYZggyfPpwE5cYpjC6eGyH9HWb6gAXF1ouaTuNW71yPeQ5c5ZzjGo5VWJ18uRli+ZF/2KLvXWvb6F6Odvl8+Q8fWW4GhOW1gwLSu4MYTOervq+5N2CLBsV1it5MDiCBWSu+3B6kZ34fVnPWDRzLbcNt1F3GpzQQrADZYTF15DDLCJiIjgwg0WWK4MA51GSsSqp1REEdK0QFHUqFs5QPLjfNZybakev1EAakEF+V27lzI6giHmVc69LciKG+C3/MJtDVbXbC68sKOce4ErfZpSv1UArqBfg+o8iysqBthERPSDqCdT6E+QWHNxcQWgekOtf9RRqRZR0WK1XGKxCBAELlw1fTbvcuJJCjXe+l2yhy7Xdjn7Uo8/FLfXMn1CLc/0iDP5WvV6F1WaSPWEl2ZXesgR2sJAPjlmSAb6dLDuT2AOfFD67gsvaXs5ecdhfBGtXSCqdTbdzbIJxBlgExHRDxLgJpLPur6Ls9Fj2Joyxn1u6oXdpDN08ufevz42JeI7lf/7+ncieJ+getSq5K6X/90g80OYwru9lztzOfYaNFkMP5RBzTrvW/VK56GPbPBcvlI+7k57NF+XJvL2sKX3UWPfFuP9t9alyOThIP++yXyEOQBxi+stgRRZmGrjMpbpQlZtbHuHZFe57iI6wd36n1sblPHd8AKxu6uifV/K7rjYdgEIw/DWzxjNTUPcB/SReHzZY1udxunbuXuaxtRr+Fiv/uPgBo95G82nXvpTJ/qPg+tP7z+GQD2SbliP/vi8Q5druxyzbY/F616jKkzLU6/xUxz626c/rUTfJtu22LL/9n1M36hdDftTwTjM+rms2nhzzIybc/rxekM25abOAdpxN3n86o/+k/r7mz3YRET0wwRYtjWKNFJPMugIiChFUfdTF9RTIlS56q1GAxeLx2I9DQAgIqRFrQY/bUkvmRIs14MsAVlfsfqNy0GhIyzXajlzde3WYql36QVLtHVveQAgBKKiNvwTnkoTgUXv4Iy2GO8/g2CJ1Wg9o9GxQAcwtLGY08bdU3B2/euLVbkAy3p8/BT1cnjcGY5fIcbnCBNHRdxr//79w69fv/qT6MS4D+gj8fiyx7Y6DbYzfVeO40ALs+gb6+9v9mATERERER0RA2wiIiIioiNigE1EREREdETO+/s7k4OIiIiIjuy///7TJ9E39/7+DnCQ43niPqCPxOPLHtuKiA7BQY4/Cwc5EhERERF9EAbYRERERERHxACbiIiIiOiIGGATERERER0RA2wiok/QZD4cx4GfGf+4GUCJeOvn56ZB5jtw/Ez9FbX+/hTUMuNS/8CgQZnF8H0HjqNevo84K8fr22SI/Rg2tR7XnO05hN1yumPW9PL9GOWo4Y7pgONptP8OqIsO05SIe9+5OcdNU2bDeWPz/ptTbvj9N6+LbX06BthERJ+oSu7wZWLob6NB5nsIkxxV1ZtcVciTEJ4WeDUvT8j75WikqnKEnoMdMfqn4P47FyViLxzsC3ncWFy8ljG8MBnOmyfwHG3emeWG3/8coecPz8e29RkwwCYi+lQVkju7HpGvxcVi1aJdLeDqH3228gFJBUCkKOoWbatedYFUAKgSPOz69fyxIhRde61fNeo0ggCQh1qAcjTHPJ6OWRfZarJ75ABEWqBWx02RCgA57rceNCXiMAcgEBX1+ririxQCOcL1VZ1tuQbZvSyXrst161IhWX/5beszY4BNRPRpIqSpAKoEd1t/YHq0W6zj25qb2/2bW/oxyjKDr1JOmjKG7zhwHB9xt9z1NPMt0KbU0in68xqZbsM3yOJ+moGP2HxP1uo28mY7TO0wrfn7Kn9cHxcI+hGWG2CxKhAByJ/L9TZ4SQUgR6il7Oxuk00blIPb0Xo5Vdpye6yXqx8Dqojtcuy5cBdLrIoIQIWnF63CHftTrqOpR1CmScnUFdPxtKstpvafuS59PcdtM29/Ul+Dl6cKECkeF4G6sHERLB6RCqB6ehmdc9aav3gFINJHLHtfWDdY4DEVQP4sjx3rci+Qq/KIxbrcZl3w+leui219U1rN+/u7PolOjPuAPhKPL3sf2VZ1Klogaou2blOBFhBtWvdLFG0EtKI/sYhaAbQYvfrzqvqE2JQVaVvXaSuAVkR6HaJNC/nZoM6oWC9Wrqu+TPnaFOuWm7ZyVSbeb62jbVu1nnoZvX2M6ySiNhLDdTcqohZ62xqN17mbx7j80faM5zeXm6jPsD3GcqP6Jo6BqfkNyzHZHLNT9H1uuT9VmdHi1X6S08d1G7dl0Bbj9pf7b1zXrO/WqEx/mUMYh1k/lDyfmY6xIsL246o7dxm+r/IYUPvIttwktX+7ddyjvv7+Zg82EdGncrF4TCF2porI25oVMLxd2d3W1OetKiBV5Xq3wqs8x5Wav1Y9jkmYbMrWKQR6vThdzxMiLZ1ClpM9vRa6XqOouz1sqqNBdpegMt6SHd66fZA5HptbvHWBFLldrm2wRBEJVIkHx/HhxzGyskQzanyZSiDbWKZGrBbufm3S225ZX7+c7fbMXO7oGLBdzr5cXFwBqN5QA/b7073GrRivf/mcA4hwEwwmKzZtMbX/dDO/W9i1P2mk6w2+9PRP4F0KAK/4O2pkxb3AFdR4ld4thabMcJf0DlzbchOa7A5JBUTdAXdgfRiE3h/cY0N2uA/oI/H4sveRbaX3Bna9cZveEq0Hu+sJnOwB6npTul42rUfIOL/qVer35Jl697pP6rotirRN+73g6/r0+bT33fKFaKM0bYtar92mx0ht01Q54zZOq+uiTaNeL6/qsYyKYb36vhp8ZtMmo3m13rw9tmev5e6xnL5t7dAZ9EZOLc9Q17hHUO/x1I+vje1tMV7WqK4t22/13Rqt64YhzPqZdh4L497gvm13K/rz2pbT1epuib4P59YH9mATEZ0Xt8tF3PFUkXXvSk9wE+mTAHGJcV+RuQcJVxe9wV6qF7KvkfnbnuchDBMkueztm8Vd4E8ke1XzJEHoeTIfN842ea71GypA9Sz382q7PFrVy6XKXV1ovZGqJ9SW6wZYLFdYta0cqFekiASQh97uxyPOaZPRvvBw2V/POdtzyHLnLOcYbPcnAPf6FqKfv10+I5843tfmtIUF07Lsvlva/qSjcxcr1IUcSCvJuyLd3YO55TYalLEPL8wBkaJeDo+B+fVtMMAmIjoLtqkip1Yi9hJUAEQUIU0LFEWNupWDAecIljI9IOr9NlV5YveYrg/nwg0WWK4sBl0dsU3m+azl2mogx4/qAagFFeR37b49PQRfoC1oQKVbmNRvFYAr6Nd9OjdYqovhFm27wjJwjfPalpODVj2EeQWR1pNPlbGvb4gBNhHRuXDV6PQqwV32V/8UmMjzlMHIB1G5k1HRYrVcYrEIEAQuXDV9LhnEqtzVukAaAUCO5xKAdwmhlrXOqR28Vli4m3Kvo6TNGm87uzDVkyn0J0is6XnEBkduE+vtOXS5tsvZl3r8obi9loGK7f4EALi4lhE2XpoSMr6+wWR8fWhbGJz8u/WjyF7+8YXrARdlUMfJznlN5UrEvoekkj3S5tz8Kab6xhhgExGdkU2qSILBT3t3Gz8PB4+2azIf8lGtt7ie8xsxU/7c+4fDpkR8J3sPN4MhdyhjmRLS+6dE1/VwcSkACFx6m23MQ38wqAhNKR+P1j3KrTf4aNMWDTI/HLaZUYCbCPIipp+eAgCQjzCUj8jVfzzHg7AObpPOzO3Ze7kzl2OvQZPF8EPZ6/ynC1Zs96fSpYm8PVikhyj2bTHef2uf/N36GboL1wR363NAgzKWAwvXF2VG6vGIvUdNymNIHrebeW3LAWUcIq8E0lr2SJvZ12c0yM7+4EE9ZIf7gD4Sjy97H9lW44FXPd2gK31Q0JxHiemDwYyDjMyDs4rIMFhxtEz10svteq/PP6hj82g200tvC/1z28fNrbd78jX9SMDBY95G83XrMdUG6xrl9P56Wm3Pocu1XY7Z9gFf8jWqwrQ89RoPeOtvn/7d0LfJti227D/tuNv7u2XanwrGYdYPNvW90/b14PGM0uSxp+0Lq3K986v5pQ++1T8fL7cDDnIkIjpjXaqILlhiVQ9zmCEiFHX/VvuxuVg8FqNlpkUN+ZS/LakUAy4WqxrpsCL52L5+7mOwRDvaRsNt3GA5zOcWEYrVb1xuSmwRYNnWKNIIYtDMAiJKR+3pLv6sl1O91WiO1iY9VttzhOVaLWeurt1aaGPE7PcngHWaCHakhwCz2mK8/ww+5bv10wRY1uN9VtTLHfvaPNhwdO6wLacG39qwqm+CoyLutX///uHXr1/9SXRi3Af0kXh82WNbEdEhHMeBFmbRN9bf3+zBJiIiIiI6IgbYRERERERHxACbiIiIiOiInPf3dyYHERERER3Zf//9p0+ib+79/R3gIMfzxH1AH4nHlz221WmwnU+L7X06bOufpb+/mSJCRERERHREDLCJiIiIiI7o/8bRQ+a4t/pnAAAAAElFTkSuQmCC;" vertex="1" parent="1">
          <mxGeometry x="49" y="210" width="555.74" height="271" as="geometry" />
        </mxCell>
        <mxCell id="xJn-vJTWKLLKkmikNth--5" value="Noise is applied to the severity score and the score is included in the model" style="rounded=1;whiteSpace=wrap;html=1;" parent="1" vertex="1">
          <mxGeometry x="620" y="317.5" width="110" height="85" as="geometry" />
        </mxCell>
        <mxCell id="xJn-vJTWKLLKkmikNth--9" value="" style="edgeStyle=orthogonalEdgeStyle;rounded=0;orthogonalLoop=1;jettySize=auto;html=1;entryX=1.003;entryY=0.361;entryDx=0;entryDy=0;entryPerimeter=0;" parent="1" edge="1" target="RhiL1b1TZZQTGWYYgc24-14">
          <mxGeometry relative="1" as="geometry">
            <mxPoint x="640" y="434.8" as="sourcePoint" />
            <mxPoint x="607.94" y="434.94" as="targetPoint" />
          </mxGeometry>
        </mxCell>
        <mxCell id="xJn-vJTWKLLKkmikNth--11" value="The mean and standard deviation for this group are calculated and normalised" style="rounded=1;whiteSpace=wrap;html=1;" parent="1" vertex="1">
          <mxGeometry x="620" y="410" width="110" height="82" as="geometry" />
        </mxCell>
        <mxCell id="xJn-vJTWKLLKkmikNth--12" value="The discrete score representing the severity of meeting or failing a given IGP statement" style="rounded=1;whiteSpace=wrap;html=1;" parent="1" vertex="1">
          <mxGeometry x="197" y="140" width="170" height="60" as="geometry" />
        </mxCell>
        <mxCell id="xJn-vJTWKLLKkmikNth--13" value="" style="endArrow=classic;html=1;rounded=0;entryX=0.104;entryY=0.027;entryDx=0;entryDy=0;exitX=0.223;exitY=0.979;exitDx=0;exitDy=0;exitPerimeter=0;entryPerimeter=0;" parent="1" edge="1" target="RhiL1b1TZZQTGWYYgc24-10" source="xJn-vJTWKLLKkmikNth--12">
          <mxGeometry width="50" height="50" relative="1" as="geometry">
            <mxPoint x="270" y="200" as="sourcePoint" />
            <mxPoint x="270" y="240" as="targetPoint" />
          </mxGeometry>
        </mxCell>
        <mxCell id="xJn-vJTWKLLKkmikNth--14" value="&lt;div&gt;For meeting or failing an IGP statement the discrete score is added to the model&lt;/div&gt;&lt;div&gt;&lt;span style=&quot;font-size:125%;line-height:1em&quot;&gt;✓&lt;/span&gt;: inlcuded&lt;/div&gt;&lt;div&gt;blank: not included&lt;/div&gt;" style="rounded=1;whiteSpace=wrap;html=1;" parent="1" vertex="1">
          <mxGeometry x="380" y="140" width="230" height="60" as="geometry" />
        </mxCell>
        <mxCell id="RhiL1b1TZZQTGWYYgc24-2" value="&lt;span style=&quot;font-size:125%;line-height:1em&quot;&gt;✓&lt;/span&gt;" style="text;whiteSpace=wrap;html=1;labelBackgroundColor=default;" vertex="1" parent="1">
          <mxGeometry x="466" y="385" width="20" height="20" as="geometry" />
        </mxCell>
        <mxCell id="RhiL1b1TZZQTGWYYgc24-5" value="&lt;span style=&quot;font-size:125%;line-height:1em&quot;&gt;✓&lt;/span&gt;" style="text;whiteSpace=wrap;html=1;labelBackgroundColor=default;" vertex="1" parent="1">
          <mxGeometry x="466" y="367" width="20" height="20" as="geometry" />
        </mxCell>
        <mxCell id="RhiL1b1TZZQTGWYYgc24-6" value="&lt;span style=&quot;font-size:125%;line-height:1em&quot;&gt;✓&lt;/span&gt;" style="text;whiteSpace=wrap;html=1;labelBackgroundColor=default;" vertex="1" parent="1">
          <mxGeometry x="466" y="350" width="20" height="20" as="geometry" />
        </mxCell>
        <mxCell id="RhiL1b1TZZQTGWYYgc24-9" value="" style="endArrow=classic;html=1;rounded=0;entryX=0.5;entryY=0;entryDx=0;entryDy=0;exitX=0.402;exitY=1;exitDx=0;exitDy=0;exitPerimeter=0;" edge="1" parent="1" source="xJn-vJTWKLLKkmikNth--14" target="RhiL1b1TZZQTGWYYgc24-11">
          <mxGeometry width="50" height="50" relative="1" as="geometry">
            <mxPoint x="438" y="206" as="sourcePoint" />
            <mxPoint x="350" y="300" as="targetPoint" />
          </mxGeometry>
        </mxCell>
        <mxCell id="RhiL1b1TZZQTGWYYgc24-10" value="" style="rounded=0;whiteSpace=wrap;html=1;fillColor=none;strokeColor=#FF3333;strokeWidth=2;" vertex="1" parent="1">
          <mxGeometry x="242" y="355" width="60" height="53" as="geometry" />
        </mxCell>
        <mxCell id="RhiL1b1TZZQTGWYYgc24-11" value="" style="rounded=0;whiteSpace=wrap;html=1;fillColor=none;strokeWidth=2;strokeColor=#FF3333;" vertex="1" parent="1">
          <mxGeometry x="440" y="353" width="65" height="53.5" as="geometry" />
        </mxCell>
        <mxCell id="RhiL1b1TZZQTGWYYgc24-12" value="" style="rounded=0;whiteSpace=wrap;html=1;fillColor=none;strokeColor=#FF3333;strokeWidth=2;" vertex="1" parent="1">
          <mxGeometry x="509" y="353" width="93.69" height="54.5" as="geometry" />
        </mxCell>
        <mxCell id="RhiL1b1TZZQTGWYYgc24-13" value="" style="endArrow=classic;html=1;rounded=0;exitX=0;exitY=0.5;exitDx=0;exitDy=0;entryX=0.999;entryY=0.552;entryDx=0;entryDy=0;entryPerimeter=0;" edge="1" parent="1" source="xJn-vJTWKLLKkmikNth--5" target="RhiL1b1TZZQTGWYYgc24-22">
          <mxGeometry width="50" height="50" relative="1" as="geometry">
            <mxPoint x="623.69" y="297.01" as="sourcePoint" />
            <mxPoint x="604" y="297" as="targetPoint" />
          </mxGeometry>
        </mxCell>
        <mxCell id="RhiL1b1TZZQTGWYYgc24-14" value="" style="rounded=0;whiteSpace=wrap;html=1;fillColor=none;strokeColor=#FF3333;strokeWidth=2;" vertex="1" parent="1">
          <mxGeometry x="510" y="410" width="93.69" height="70" as="geometry" />
        </mxCell>
        <mxCell id="RhiL1b1TZZQTGWYYgc24-15" value="&lt;div&gt;The Company failed&lt;/div&gt;&lt;div&gt;to meet the standard&lt;/div&gt;&lt;div&gt;of CAF B3.b&lt;/div&gt;" style="rounded=1;whiteSpace=wrap;html=1;" vertex="1" parent="1">
          <mxGeometry x="50" y="140" width="130" height="60" as="geometry" />
        </mxCell>
        <mxCell id="RhiL1b1TZZQTGWYYgc24-16" value="" style="rounded=0;whiteSpace=wrap;html=1;fillColor=none;strokeColor=#FF3333;strokeWidth=2;" vertex="1" parent="1">
          <mxGeometry x="54" y="355" width="179" height="53" as="geometry" />
        </mxCell>
        <mxCell id="RhiL1b1TZZQTGWYYgc24-17" value="" style="endArrow=classic;html=1;rounded=0;entryX=0.375;entryY=-0.009;entryDx=0;entryDy=0;entryPerimeter=0;" edge="1" parent="1" target="RhiL1b1TZZQTGWYYgc24-16">
          <mxGeometry width="50" height="50" relative="1" as="geometry">
            <mxPoint x="120" y="199.5" as="sourcePoint" />
            <mxPoint x="120" y="248.5" as="targetPoint" />
          </mxGeometry>
        </mxCell>
        <mxCell id="RhiL1b1TZZQTGWYYgc24-19" value="" style="rounded=0;whiteSpace=wrap;html=1;fillColor=none;strokeColor=#FF3333;strokeWidth=2;" vertex="1" parent="1">
          <mxGeometry x="306" y="273" width="129" height="80" as="geometry" />
        </mxCell>
        <mxCell id="RhiL1b1TZZQTGWYYgc24-20" value="&lt;div&gt;The columns; Achieved, Partially Achieved&lt;/div&gt;&lt;div&gt;and Not Achieved, are Mutually Exclusive. Scores outside of the realised group performance must be excluded&lt;/div&gt;" style="rounded=1;whiteSpace=wrap;html=1;" vertex="1" parent="1">
          <mxGeometry x="54" y="420" width="257" height="60" as="geometry" />
        </mxCell>
        <mxCell id="RhiL1b1TZZQTGWYYgc24-21" value="" style="endArrow=classic;html=1;rounded=0;entryX=0.5;entryY=1;entryDx=0;entryDy=0;" edge="1" parent="1" target="RhiL1b1TZZQTGWYYgc24-19">
          <mxGeometry width="50" height="50" relative="1" as="geometry">
            <mxPoint x="311" y="437" as="sourcePoint" />
            <mxPoint x="367" y="437" as="targetPoint" />
          </mxGeometry>
        </mxCell>
      </root>
    </mxGraphModel>
  </diagram>
</mxfile>
